<?xml version="1.0" encoding="UTF-8"?>
<svg version="1.1" xmlns="http://www.w3.org/2000/svg" width="4096" height="922">
<path d="M0 0 C6.07454685 5.60641664 10.99827159 12.1605908 14.125 19.8125 C16.91117867 25.03427856 21.80444036 26.66894135 26.97900391 28.89746094 C41.06749557 34.98159995 54.29353752 43.45280298 66.1875 53.125 C66.69796875 53.53540527 67.2084375 53.94581055 67.734375 54.36865234 C86.44447203 69.47410386 100.16946719 86.39847548 112.74560547 106.80859375 C114.06715956 108.93167286 115.41690339 111.03182056 116.78515625 113.125 C131.10930839 135.15587813 141.1157903 159.12197114 148 184.4375 C148.30284912 185.53545898 148.60569824 186.63341797 148.91772461 187.76464844 C150.18766552 192.55143165 151.3008236 197.12193179 151.59375 202.07421875 C153.10888268 221.9648131 173.44470584 235.4699996 187.56835938 247.68896484 C189.84494747 249.70809801 191.95388808 251.86998137 194.0625 254.0625 C198.05155051 258.10034623 202.21354881 261.65391546 206.69140625 265.1328125 C209.26415167 267.18617739 211.6944674 269.34315112 214.125 271.5625 C218.39384361 275.45233414 222.79788436 279.12448078 227.2890625 282.75390625 C229.81682519 284.82176602 232.30155275 286.93119478 234.77539062 289.06298828 C246.94546204 299.52048249 259.94767801 308.79009328 273.21826172 317.78808594 C276.40383592 319.95076934 279.57728763 322.1310079 282.75 324.3125 C283.71510498 324.97608521 283.71510498 324.97608521 284.69970703 325.65307617 C343.66265558 366.23529311 343.66265558 366.23529311 362.1875 384.125 C363.60289062 385.46304688 363.60289062 385.46304688 365.046875 386.828125 C376.22713843 397.63777196 388.05800373 410.77428635 388.4375 427.1875 C388.25989812 437.87913305 384.803687 448.00783857 377.5234375 455.9375 C370.68739134 462.18046453 363.18814031 465.24609612 353.94140625 465.2578125 C352.44673828 465.26071289 352.44673828 465.26071289 350.921875 465.26367188 C349.87515625 465.25916016 348.8284375 465.25464844 347.75 465.25 C346.68136719 465.24806641 345.61273437 465.24613281 344.51171875 465.24414062 C336.69789497 465.20157137 328.9672661 464.89201919 321.1875 464.125 C321.80238281 464.86492187 322.41726563 465.60484375 323.05078125 466.3671875 C324.82024 468.65098618 326.13391682 470.66652073 327.375 473.25 C327.69855469 473.91257812 328.02210938 474.57515625 328.35546875 475.2578125 C331.78892167 482.96293219 331.33534244 493.59794901 329.28125 501.69921875 C328.0981992 504.66063757 326.78300597 507.36566341 325.1875 510.125 C324.75308594 510.88296875 324.31867187 511.6409375 323.87109375 512.421875 C317.9457975 521.4026659 307.77355429 525.48879221 297.59765625 527.68359375 C283.17740082 529.55013311 268.27965781 528.57104248 254.1875 525.125 C253.5162207 524.96402832 252.84494141 524.80305664 252.15332031 524.63720703 C230.74792807 519.33425288 210.86304275 508.81668394 191.1875 499.125 C190.47070068 498.77207886 189.75390137 498.41915771 189.01538086 498.05554199 C171.4022414 489.37640002 153.81083416 480.68442838 136.6484375 471.13671875 C132.47239977 468.81643623 128.26384551 466.56197187 124.0390625 464.33203125 C110.03030019 456.93398779 96.20358626 449.34238537 82.5625 441.27734375 C77.9032638 438.52691788 73.18824976 435.90042719 68.4375 433.3125 C47.22770353 421.65576552 26.92102977 408.53757129 6.90283203 394.96166992 C6.00677246 394.35556885 5.11071289 393.74946777 4.1875 393.125 C3.15455811 392.39539063 2.12161621 391.66578125 1.05737305 390.9140625 C-3.51984177 388.06065287 -7.22345639 388.81139602 -12.35546875 389.82421875 C-32.43883587 395.27019076 -50.08953701 403.78830229 -61.1875 422.14453125 C-74.16933332 445.95496111 -77.95290929 478.79283884 -72.8125 505.125 C-72.30301139 506.46270942 -71.78406175 507.79690995 -71.25 509.125 C-69.84687015 514.3477611 -73.13188045 519.03068643 -75.62109375 523.46875 C-97.332863 560.3484804 -130.74119059 585.52427064 -171.703125 597.32421875 C-226.43369654 611.41940363 -287.1664179 600.88321756 -335.796875 572.85546875 C-351.4723931 563.55539854 -365.65408566 551.71152494 -377.8125 538.125 C-378.64612061 537.2585083 -378.64612061 537.2585083 -379.49658203 536.37451172 C-381.38798349 533.14123286 -380.96355245 530.84923663 -380.66015625 527.13671875 C-380.5787867 526.07306091 -380.5787867 526.07306091 -380.49577332 524.98791504 C-380.30661664 522.59428852 -380.09171057 520.20377998 -379.875 517.8125 C-379.72902721 516.08703472 -379.58353303 514.36152889 -379.43847656 512.63598633 C-373.7660407 446.78751572 -365.66039227 380.5970115 -350.8125 316.125 C-351.41610352 315.84213135 -352.01970703 315.5592627 -352.64160156 315.26782227 C-355.69146056 313.66229033 -358.06020665 311.39561751 -360.5625 309.0625 C-361.09399658 308.56790283 -361.62549316 308.07330566 -362.1730957 307.5637207 C-386.29001878 284.87124107 -395.87106146 255.43657936 -396.91748047 222.85644531 C-398.05055175 171.88935097 -393.71087562 115.90981728 -359.8125 75.125 C-359.12800781 74.26390625 -358.44351563 73.4028125 -357.73828125 72.515625 C-340.08116273 51.39434799 -312.91542553 39.55068943 -285.98046875 36.72265625 C-282.9247986 36.48098353 -279.87390624 36.27471464 -276.8125 36.125 C-276.73773438 35.45597656 -276.66296875 34.78695312 -276.5859375 34.09765625 C-273.3833956 10.70654142 -261.94436774 -8.74757842 -244.1875 -24.0625 C-229.10587897 -35.49880031 -211.47142654 -41.57604917 -192.8125 -43.875 C-191.58660156 -44.04128906 -191.58660156 -44.04128906 -190.3359375 -44.2109375 C-131.2462234 -50.97972828 -46.20846796 -38.52013203 0 0 Z " fill="#0B2946" transform="translate(538.8125,201.875)"/>
<path d="M0 0 C2.0762753 -0.0095725 4.15150173 -0.04054013 6.22753906 -0.07226562 C18.17267034 -0.16907963 28.95935365 2.00014254 40.05566406 6.42773438 C41.11237305 6.83668945 41.11237305 6.83668945 42.19042969 7.25390625 C43.87773818 7.90816873 45.56095654 8.57296592 47.24316406 9.24023438 C47.24316406 9.90023438 47.24316406 10.56023437 47.24316406 11.24023438 C47.95859375 11.48773438 48.67402344 11.73523438 49.41113281 11.99023438 C62.88909014 17.93912588 71.53752657 31.26928686 77.24316406 44.24023438 C79.36723178 50.61243752 79.33123199 57.95941887 77.21972656 64.32617188 C71.10144525 76.3937212 59.74372343 83.75000791 47.24316406 88.24023438 C45.26316406 88.57023437 43.28316406 88.90023437 41.24316406 89.24023438 C40.58316406 85.28023438 39.92316406 81.32023437 39.24316406 77.24023438 C38.25316406 76.91023438 37.26316406 76.58023438 36.24316406 76.24023438 C35.62441406 75.60085938 35.00566406 74.96148437 34.36816406 74.30273438 C30.69934787 70.74182454 27.42378422 70.10360231 22.43066406 69.92773438 C13.30636773 70.19728523 8.17637001 73.53767915 1.57519531 79.76367188 C-1.7481882 83.29302723 -4.31365973 87.06932919 -6.75683594 91.24023438 C-7.26085937 92.01109375 -7.76488281 92.78195312 -8.28417969 93.57617188 C-10.00554005 96.69014474 -10.92962443 99.68877249 -11.88183594 103.11523438 C-12.21441406 104.28828125 -12.54699219 105.46132813 -12.88964844 106.66992188 C-14.77882612 114.44788765 -15.00127524 122.02259574 -15.06933594 129.99023438 C-15.09833984 131.1065625 -15.12734375 132.22289062 -15.15722656 133.37304688 C-15.23419441 143.53280276 -13.02020628 152.5963528 -6.44824219 160.56835938 C-3.5480232 163.43508853 -0.80202755 165.42675891 3.24316406 166.24023438 C9.61621618 165.50359438 15.06613834 161.80913767 20.24316406 158.24023438 C29.85100838 168.52773328 36.55516802 183.49128911 39.24316406 197.24023438 C39.57316406 196.91023437 39.90316406 196.58023438 40.24316406 196.24023438 C47.66873628 195.58115417 54.84474535 196.81632375 62.11816406 198.17773438 C63.64570312 198.45133789 63.64570312 198.45133789 65.20410156 198.73046875 C72.57075845 200.06325207 72.57075845 200.06325207 75.30883789 200.78393555 C89.76856327 204.19491961 104.76786063 200.2294237 117.30566406 192.99023438 C123.16937958 189.00535468 127.00217425 183.96320382 129.24316406 177.24023438 C129.43815658 173.92897252 129.58728617 170.6242526 129.67285156 167.30859375 C129.95197697 161.09223822 131.60159524 156.99633125 135.93066406 152.36523438 C139.0963776 150.33439927 141.08216144 149.35614783 144.86425781 149.65039062 C155.5926405 152.31046581 163.23566217 159.58781985 170.90722656 167.04492188 C173.72732493 169.78458389 176.66297847 172.29234495 179.74316406 174.74023438 C184.10022922 178.2258865 188.18412351 181.91841404 192.24316406 185.74023438 C197.12395968 190.33082764 202.1103695 194.67946958 207.34082031 198.87304688 C210.82890856 201.71797484 214.22475235 204.65858565 217.61816406 207.61523438 C222.49984429 211.8610655 227.38360611 216.1037068 232.30566406 220.30273438 C233.30726563 221.15996094 234.30886719 222.0171875 235.34082031 222.90039062 C237.42026046 224.5768168 239.37827353 226.00449833 241.61425781 227.42382812 C242.48179687 228.02324219 243.34933594 228.62265625 244.24316406 229.24023438 C244.24316406 229.90023437 244.24316406 230.56023437 244.24316406 231.24023438 C244.76910156 231.46324219 245.29503906 231.68625 245.83691406 231.91601562 C249.10856354 233.71648506 251.87059702 236.06434123 254.74316406 238.42773438 C277.60821339 256.95009786 301.93967321 273.40503867 326.28811646 289.88441467 C334.29506006 295.30455102 342.28198412 300.75310758 350.24316406 306.24023438 C351.05688477 306.8001709 351.87060547 307.36010742 352.70898438 307.93701172 C395.7218263 337.58992944 395.7218263 337.58992944 403.24316406 350.24023438 C403.91867698 354.29331187 403.44568439 355.87709449 401.43066406 359.49023438 C399.24316406 362.24023438 399.24316406 362.24023438 396.24316406 364.24023438 C368.8419134 367.06051478 342.64796601 356.18511624 317.79785156 346.08398438 C314.02494758 344.55051163 310.23603687 343.06667241 306.43066406 341.61523438 C301.79867252 339.84102682 297.17090969 338.05753452 292.55566406 336.24023438 C290.81736328 335.55960938 290.81736328 335.55960938 289.04394531 334.86523438 C286.15483219 333.67720947 283.38513565 332.32327221 280.60253906 330.90429688 C274.58193938 327.8539657 268.39052764 325.2526168 262.18066406 322.61523438 C243.49387527 314.61338977 225.09371589 305.99661045 206.68383789 297.38146973 C204.37571841 296.3022155 202.06654881 295.22525333 199.75683594 294.14941406 C55.72840322 227.05386414 55.72840322 227.05386414 40.24316406 210.24023438 C38.35757096 212.12582748 38.45294814 214.94726777 37.91894531 217.47460938 C36.69128236 222.49880226 34.9442692 227.35987935 33.24316406 232.24023438 C33.87738281 232.34078125 34.51160156 232.44132813 35.16503906 232.54492188 C77.9646114 242.21284558 121.08841771 268.87875185 154.69628906 296.02929688 C163.87878815 303.43956128 173.27028089 310.50104607 182.80371094 317.45361328 C185.21398862 319.21886669 187.61307441 320.99824783 190.00878906 322.78320312 C198.77270719 329.30468485 207.63155716 335.63651089 216.67626953 341.76342773 C220.79932956 344.55786973 224.86957415 347.39347269 228.86816406 350.36523438 C247.8636007 364.32644127 268.69673339 377.6319718 290.71191406 386.20117188 C295.16125939 387.94165108 299.14435964 389.78095172 303.24316406 392.24023438 C304.73670441 392.83991346 306.23779626 393.42089655 307.74316406 393.99023438 C317.1804284 397.68368753 325.86099839 402.67933213 334.02441406 408.66210938 C336.26534164 410.32815054 336.26534164 410.32815054 338.99316406 411.70117188 C339.73566406 412.2090625 340.47816406 412.71695312 341.24316406 413.24023438 C341.81120151 417.64252457 341.75213729 420.06959595 339.99316406 424.11523438 C337.57691156 427.04925527 335.45280808 428.02489527 331.71972656 428.68945312 C318.28157042 429.81236754 307.66394449 428.51212935 295.24316406 423.24023438 C293.62430548 422.70061485 291.99978618 422.1774359 290.36816406 421.67773438 C286.27726589 420.35640413 282.93958075 418.43070352 279.24316406 416.24023438 C277.55822121 415.51870167 275.87280384 414.79821537 274.18310547 414.08789062 C270.10448298 412.30573894 266.16849342 410.22134091 262.20410156 408.20117188 C259.12386416 406.64321396 256.06637467 405.1656128 252.88378906 403.82226562 C248.12581865 401.75469265 243.57703801 399.35260575 238.99316406 396.92773438 C238.06673096 396.44006592 237.14029785 395.95239746 236.18579102 395.44995117 C229.84038804 392.10326193 223.5158076 388.72177189 217.24316406 385.24023438 C217.24316406 384.58023437 217.24316406 383.92023438 217.24316406 383.24023438 C216.50066406 383.11648438 215.75816406 382.99273438 214.99316406 382.86523438 C212.44174922 382.28536736 210.51640676 381.50314698 208.24316406 380.24023438 C208.24316406 379.58023437 208.24316406 378.92023438 208.24316406 378.24023438 C207.15575928 378.07177002 207.15575928 378.07177002 206.04638672 377.89990234 C203.09795424 377.20606289 201.01127666 376.19158863 198.39160156 374.68554688 C197.46750488 374.15872314 196.5434082 373.63189941 195.59130859 373.08911133 C194.6101709 372.52023193 193.6290332 371.95135254 192.61816406 371.36523438 C191.59706543 370.7802417 190.5759668 370.19524902 189.52392578 369.5925293 C186.42627219 367.81538843 183.3343146 366.02865702 180.24316406 364.24023438 C178.52982089 363.2542123 176.81629325 362.26851066 175.10253906 361.28320312 C171.21185318 359.04229484 167.32882865 356.78855423 163.45019531 354.52685547 C162.00564178 353.68473189 160.56035673 352.84386159 159.11425781 352.00439453 C147.85417119 345.46670405 136.76480346 338.67120027 125.71777344 331.78027344 C123.45450172 330.37175746 121.18611899 328.97204999 118.91503906 327.57617188 C110.2615138 322.24263805 101.85888145 316.61460698 93.51416016 310.81201172 C89.16978337 307.80522848 84.79828044 304.83810833 80.43066406 301.86523438 C72.32809859 296.3457987 64.23241284 290.81645385 56.14428711 285.27587891 C55.40992432 284.7729834 54.67556152 284.27008789 53.91894531 283.75195312 C53.27868408 283.31326904 52.63842285 282.87458496 51.97875977 282.42260742 C48.05623079 279.75038801 46.79717286 278.99199318 42.11816406 279.86523438 C39.82255813 280.30341126 37.53115243 280.76387865 35.24316406 281.24023438 C33.95539063 281.49933594 32.66761719 281.7584375 31.34082031 282.02539062 C17.5317216 284.94986364 3.21629841 289.02154489 -8.65136719 296.86523438 C-10.7326542 298.22444222 -12.83795984 299.27558572 -15.06933594 300.36523438 C-20.22497789 303.14632439 -24.24626995 307.17235205 -28.41625977 311.22705078 C-32.56789381 315.24023438 -32.56789381 315.24023438 -34.75683594 315.24023438 C-35.02238281 315.82933594 -35.28792969 316.4184375 -35.56152344 317.02539062 C-36.7882042 319.29835792 -38.10095934 320.81816788 -39.88183594 322.67773438 C-51.70667266 335.99907532 -58.54268995 353.14649068 -62.75683594 370.24023438 C-62.92812012 370.89652832 -63.0994043 371.55282227 -63.27587891 372.22900391 C-67.19624273 387.32506549 -69.25442767 402.83242012 -68.45214844 418.43945312 C-67.46985416 439.15817963 -67.46985416 439.15817963 -72.640625 445.76293945 C-74.71385308 447.97866282 -76.87083238 450.00503138 -79.20898438 451.93847656 C-81.45082094 453.82388233 -83.38764925 455.97387524 -85.38183594 458.11523438 C-87.23339844 459.98242188 -87.23339844 459.98242188 -88.75683594 461.24023438 C-89.41683594 461.24023438 -90.07683594 461.24023438 -90.75683594 461.24023438 C-91.01480957 461.84311279 -91.2727832 462.44599121 -91.53857422 463.06713867 C-92.87573997 465.45233154 -94.02456601 466.45447956 -96.24902344 468.00976562 C-96.94793701 468.50275146 -97.64685059 468.9957373 -98.36694336 469.50366211 C-99.11435791 470.01485596 -99.86177246 470.5260498 -100.63183594 471.05273438 C-101.40052002 471.58390869 -102.1692041 472.11508301 -102.96118164 472.66235352 C-113.5039699 479.88128537 -123.54738316 485.32014251 -135.75683594 489.24023438 C-136.8409375 489.61148437 -137.92503906 489.98273438 -139.04199219 490.36523438 C-151.6988901 494.54831607 -164.28660675 495.57820753 -177.51538086 495.50097656 C-179.68924947 495.49025945 -181.86228902 495.50094359 -184.03613281 495.51367188 C-193.38396477 495.52263925 -202.55201378 494.98367605 -211.75683594 493.24023438 C-213.93915736 491.05791296 -212.92204531 485.83500127 -212.93041992 482.79760742 C-212.94051417 481.30155771 -212.94051417 481.30155771 -212.95081234 479.77528477 C-212.96499444 477.58994124 -212.97690965 475.40458215 -212.98688889 473.21921539 C-213.00309195 469.71687956 -213.02541248 466.21463149 -213.04946899 462.71234131 C-213.08343989 457.71667477 -213.11533297 452.721002 -213.14553833 447.72531128 C-213.40684118 397.18994666 -213.40684118 397.18994666 -214.81933594 346.67773438 C-215.91430975 319.52349899 -215.97396802 292.41374865 -215.75683594 265.24023438 C-214.88115967 265.08204224 -214.88115967 265.08204224 -213.98779297 264.9206543 C-211.28470546 264.42886848 -208.5833028 263.92834313 -205.88183594 263.42773438 C-204.50511719 263.17926758 -204.50511719 263.17926758 -203.10058594 262.92578125 C-193.70163735 261.17175211 -184.95067299 258.78341333 -176.50683594 254.24023438 C-175.78230225 253.8514209 -175.05776855 253.46260742 -174.3112793 253.06201172 C-146.24303443 237.50848621 -130.96554592 211.257468 -120.92480469 181.67382812 C-119.93495927 178.76388124 -118.88205501 175.89284937 -117.80761719 173.01367188 C-109.17725087 149.33085459 -105.46309399 124.27228844 -103.75683594 99.24023438 C-99.58003049 99.16489657 -95.40360683 99.1110859 -91.22631836 99.07543945 C-89.81153456 99.06054699 -88.39679527 99.04022602 -86.98217773 99.01391602 C-77.51220991 98.84246825 -68.93693217 99.68080479 -59.75683594 102.24023438 C-58.31106589 102.59783297 -56.86456671 102.95251191 -55.41699219 103.30273438 C-53.63615234 103.76679688 -53.63615234 103.76679688 -51.81933594 104.24023438 C-50.01142578 104.70429688 -50.01142578 104.70429688 -48.16699219 105.17773438 C-44.80140055 106.22634941 -41.88655705 107.63665092 -38.75683594 109.24023438 C-38.09683594 109.24023438 -37.43683594 109.24023438 -36.75683594 109.24023438 C-36.65886719 108.51320313 -36.56089844 107.78617187 -36.45996094 107.03710938 C-35.24390346 98.86017115 -33.48062205 90.68780661 -29.75683594 83.24023438 C-30.48257813 83.12808594 -31.20832031 83.0159375 -31.95605469 82.90039062 C-34.88247587 82.2106205 -36.97971403 81.18512623 -39.56933594 79.67773438 C-40.35953125 79.22269531 -41.14972656 78.76765625 -41.96386719 78.29882812 C-42.55554688 77.94949219 -43.14722656 77.60015625 -43.75683594 77.24023438 C-43.75683594 76.58023438 -43.75683594 75.92023438 -43.75683594 75.24023438 C-44.33820313 74.97082031 -44.91957031 74.70140625 -45.51855469 74.42382812 C-54.87348461 69.47698036 -61.30285041 60.06349596 -64.75683594 50.24023438 C-66.57954904 42.44960578 -66.05615218 34.44322392 -62.19042969 27.37695312 C-53.17988311 14.21609419 -39.46939739 5.87219906 -23.87011719 2.64257812 C-22.94585937 2.48917969 -22.02160156 2.33578125 -21.06933594 2.17773438 C-13.85260087 0.96995437 -7.37538778 0.02049668 0 0 Z " fill="#016566" transform="translate(499.7568359375,274.759765625)"/>
<path d="M0 0 C26.73 0 53.46 0 81 0 C81 138.6 81 277.2 81 420 C58.56 420 36.12 420 13 420 C10.69 410.76 8.38 401.52 6 392 C5.67 391.34 5.34 390.68 5 390 C4.44054688 390.60585938 3.88109375 391.21171875 3.3046875 391.8359375 C-15.09881937 411.06789805 -39.66218006 422.47736778 -66 426 C-66.81855469 426.11085938 -67.63710937 426.22171875 -68.48046875 426.3359375 C-99.83407769 429.84602383 -131.66407632 424.4817898 -157 405 C-158.0415625 404.20464844 -159.083125 403.40929687 -160.15625 402.58984375 C-188.03255669 380.38031153 -200.49158421 345.08707897 -204.62890625 310.70703125 C-209.16823558 265.3615204 -204.60163841 214.0699279 -174.67431641 177.37451172 C-171.584701 173.78185903 -168.31087602 170.38821035 -165 167 C-163.90751953 165.81470703 -163.90751953 165.81470703 -162.79296875 164.60546875 C-141.20947923 141.74058467 -108.58178418 130.89925121 -77.69018555 129.89208984 C-50.70809257 129.44150299 -25.52780142 131.42707447 0 141 C0 94.47 0 47.94 0 0 Z M-100 211 C-101.299375 212.03833984 -101.299375 212.03833984 -102.625 213.09765625 C-117.17497227 225.37419535 -123.72228854 245.03996924 -125.82128906 263.59765625 C-127.8763269 291.22275506 -126.64327601 320.64945398 -108.3515625 343.015625 C-100.41333132 351.58742393 -87.67542397 358.25181256 -75.91625977 359.16113281 C-55.07516685 359.55449043 -36.55747522 356.16099901 -21.03076172 341.27929688 C-5.31544886 325.40612323 0.54505971 306.08950035 0.45318604 284.22766113 C0.43277401 282.43301901 0.41191029 280.63838198 0.390625 278.84375 C0.38314275 276.960903 0.37745923 275.07804808 0.37347412 273.19519043 C0.35837369 268.29609779 0.31923109 263.39749746 0.2746582 258.49859619 C0.23336434 253.47699641 0.21539107 248.45531524 0.1953125 243.43359375 C0.15271783 233.62218233 0.08466148 223.81113247 0 214 C-2.22877508 212.7050783 -4.45991988 211.41457546 -6.69262695 210.12646484 C-7.31915413 209.76185654 -7.9456813 209.39724823 -8.59119415 209.02159119 C-13.30526479 206.30842511 -17.97140405 204.20029466 -23.1875 202.625 C-23.95449219 202.38370361 -24.72148437 202.14240723 -25.51171875 201.89379883 C-50.12261791 194.33540507 -79.1959548 193.99406174 -100 211 Z " fill="#2C9BDA" transform="translate(3792,244)"/>
<path d="M0 0 C1.02876272 0.87095571 2.05738541 1.74207681 3.0859375 2.61328125 C5.0659375 4.26328125 7.0459375 5.91328125 9.0859375 7.61328125 C11.0659375 -0.96671875 13.0459375 -9.54671875 15.0859375 -18.38671875 C36.5359375 -18.38671875 57.9859375 -18.38671875 80.0859375 -18.38671875 C80.0859375 75.33328125 80.0859375 169.05328125 80.0859375 265.61328125 C59.9559375 265.61328125 39.8259375 265.61328125 19.0859375 265.61328125 C15.71775162 255.50872361 15.71775162 255.50872361 14.515625 250.95703125 C14.25910156 249.99796875 14.00257813 249.03890625 13.73828125 248.05078125 C13.21181237 246.06131092 12.68578385 244.07172402 12.16015625 242.08203125 C11.90621094 241.13328125 11.65226562 240.18453125 11.390625 239.20703125 C11.16358887 238.34787109 10.93655273 237.48871094 10.70263672 236.60351562 C10.26172811 234.6336933 10.26172811 234.6336933 9.0859375 233.61328125 C8.70824219 234.07476563 8.33054687 234.53625 7.94140625 235.01171875 C-11.5213614 258.07532632 -37.95004557 269.5142318 -67.6484375 272.296875 C-99.55564885 274.84451631 -133.90496801 267.81594084 -159.13232422 247.14160156 C-189.75751091 220.87225809 -204.16400431 184.61053978 -207.5390625 144.98828125 C-210.2936002 100.014193 -202.3193318 52.89139508 -171.87084961 17.98754883 C-170.56190542 16.52048952 -169.23841502 15.06644617 -167.9140625 13.61328125 C-167.27210938 12.88882813 -166.63015625 12.164375 -165.96875 11.41796875 C-125.14088918 -32.23779585 -45.92345346 -38.09956118 0 0 Z M-111.06640625 63.13671875 C-125.38175993 81.28696751 -130.33059624 103.05206958 -130.2265625 125.80078125 C-130.22164795 127.074375 -130.2167334 128.34796875 -130.21166992 129.66015625 C-129.93933413 151.62578359 -124.8131057 173.00962241 -109.2578125 189.39453125 C-95.37896966 202.53316914 -77.83204538 205.26074653 -59.4765625 204.92578125 C-43.19204097 204.25838283 -27.65289146 198.05517524 -15.9140625 186.61328125 C-1.02025482 169.38986217 0.61962454 150.34836616 0.53198242 128.53540039 C0.5234792 125.31656703 0.5523206 122.09951844 0.58398438 118.88085938 C0.63708403 103.63459334 -0.1069035 87.81367203 -7.6015625 74.11328125 C-8.11420654 73.13887085 -8.11420654 73.13887085 -8.63720703 72.14477539 C-15.98179702 58.7517974 -26.93838928 50.36944791 -41.31640625 45.61328125 C-65.25368657 38.95970496 -94.25076242 43.42182598 -111.06640625 63.13671875 Z " fill="#2C9BDA" transform="translate(3281.9140625,398.38671875)"/>
<path d="M0 0 C30.36 0 60.72 0 92 0 C95.96 7.26 99.92 14.52 104 22 C108.35548389 29.67717951 108.35548389 29.67717951 112.7421875 37.3359375 C116.4624088 43.80198158 120.1712541 50.27450879 123.875 56.75 C124.38293091 57.63780655 124.38293091 57.63780655 124.90112305 58.54354858 C130.3208141 68.0201136 135.67333175 77.53280337 140.99609375 87.06420898 C146.59481163 97.08275754 152.29067843 107.0442014 158 117 C160.62677928 121.58231671 163.25170342 126.16568913 165.875 130.75 C166.2121402 131.33881958 166.5492804 131.92763916 166.89663696 132.53430176 C172.41239448 142.17083797 177.85665746 151.8450464 183.22021484 161.56738281 C186.90795833 168.20735166 190.8557964 174.63521658 195 181 C195.40089844 180.29842773 195.80179688 179.59685547 196.21484375 178.87402344 C197.43504107 176.73867813 198.65525786 174.60334396 199.87548828 172.46801758 C201.311545 169.95493925 202.74739261 167.44174159 204.18310547 164.9284668 C207.82965344 158.54543697 211.47819787 152.16357132 215.1328125 145.78515625 C216.46389883 143.46114185 217.79460635 141.13691099 219.125 138.8125 C219.62166168 137.9447998 219.62166168 137.9447998 220.12835693 137.05957031 C224.84376882 128.81727457 229.50224232 120.54461112 234.125 112.25 C239.22214598 103.10554429 244.44998746 94.04640908 249.75048828 85.01855469 C253.92289313 77.89414138 257.98512944 70.71422053 262 63.5 C267.12736659 54.28676317 272.38039994 45.15742163 277.72363281 36.06787109 C282.80370377 27.40077093 287.70923343 18.64172553 292.55859375 9.84375 C293.11160156 8.84601563 293.66460938 7.84828125 294.234375 6.8203125 C294.96479004 5.49410889 294.96479004 5.49410889 295.70996094 4.14111328 C297 2 297 2 299 0 C301.83173095 -0.188174 304.56490752 -0.2517338 307.39697266 -0.22705078 C308.26533249 -0.22734283 309.13369232 -0.22763489 310.02836609 -0.22793579 C312.90703218 -0.22653917 315.78544146 -0.21096242 318.6640625 -0.1953125 C320.6566046 -0.19158355 322.64914853 -0.18873602 324.64169312 -0.18673706 C329.89262939 -0.17909132 335.14345548 -0.15943477 340.39434814 -0.1373291 C345.74986276 -0.11689091 351.10539514 -0.10773969 356.4609375 -0.09765625 C366.97400681 -0.07618975 377.48699425 -0.04204249 388 0 C387.26091962 4.18214004 386.03609307 6.96998175 383.78125 10.59375 C383.10449219 11.69243408 382.42773438 12.79111816 381.73046875 13.9230957 C381.36743652 14.50515778 381.0044043 15.08721985 380.63037109 15.68692017 C378.6856175 18.80624402 376.76596826 21.94097636 374.84375 25.07421875 C374.44462402 25.72351852 374.04549805 26.3728183 373.63427734 27.04179382 C368.62065843 35.21615882 363.8014936 43.50363742 358.97460938 51.7890625 C355.17003362 58.31441794 351.32635648 64.81326149 347.43264771 71.28562927 C344.77121039 75.71047051 342.12564622 80.1443895 339.4921875 84.5859375 C339.11822845 85.21661636 338.74426941 85.84729523 338.35897827 86.49708557 C337.59212253 87.79067246 336.82534897 89.08430807 336.05865479 90.37799072 C329.77607656 100.97767498 323.47417834 111.56504124 317.125 122.125 C312.6388296 129.58794742 308.17439211 137.06275164 303.75 144.5625 C275.91652141 191.74278608 275.91652141 191.74278608 264.046875 210.7265625 C256.64375912 222.5874562 249.49807182 234.58023545 242.47216797 246.66723633 C242.11559113 247.2796669 241.75901428 247.89209747 241.39163208 248.52308655 C240.41552086 250.20039624 239.44158057 251.87896875 238.46777344 253.55761719 C237 256 237 256 236 257 C235.89085151 259.10061578 235.85308164 261.20494566 235.84178162 263.30836487 C235.83684364 263.97483833 235.83190566 264.64131179 235.82681805 265.32798141 C235.81137111 267.57745697 235.8030631 269.82690384 235.79467773 272.07641602 C235.78510485 273.68245703 235.77509513 275.28849549 235.76467896 276.89453125 C235.73755986 281.26828323 235.71658835 285.64204607 235.69667697 290.015836 C235.67486047 294.58161749 235.64745064 299.14736522 235.62062073 303.71311951 C235.57063502 312.36518857 235.52571808 321.01727632 235.48259836 329.66938204 C235.42406157 341.35662299 235.35774326 353.04381958 235.29184818 364.73102093 C235.18818159 383.15398409 235.09495358 401.5769851 235 420 C207.94 420 180.88 420 153 420 C153.12503906 408.64207031 153.25007813 397.28414062 153.37890625 385.58203125 C153.42022665 378.33125619 153.45715519 371.08088523 153.47460938 363.83007812 C153.50303665 352.35292387 153.54797691 340.87776539 153.7097168 329.40161133 C153.82750743 321.0379572 153.88305796 312.67641118 153.86853737 304.31190509 C153.8629212 299.8953333 153.88527528 295.48351315 153.98260689 291.06791115 C154.48189575 267.22812106 151.02471696 251.43685412 137.02779961 231.86951256 C134.20620606 227.87671264 131.72980691 223.70947875 129.25 219.5 C126.53992763 215.07050488 123.79192959 210.66470662 121.0390625 206.26171875 C113.90520588 194.83215857 107.01414131 183.2798309 100.22363281 171.64453125 C96.22987523 164.80165762 92.21527188 157.97330441 88.125 151.1875 C82.94016208 142.58546512 77.81005454 133.95170286 72.6875 125.3125 C66.85929148 115.48422222 61.01283037 105.66771668 55.125 95.875 C50.11125451 87.53440137 45.13347445 79.17384428 40.18945312 70.79174805 C35.75522197 63.27454949 31.30856443 55.76480643 26.85430908 48.25946045 C25.63179841 46.19895849 24.41036068 44.1378231 23.18896484 42.07666016 C19.32061403 35.55399173 15.43163743 29.0455741 11.484375 22.5703125 C10.78164594 21.41387447 10.07900686 20.25738175 9.37646484 19.10083008 C8.07585283 16.96397436 6.76921212 14.83077228 5.45556641 12.7019043 C4.87983887 11.75484619 4.30411133 10.80778809 3.7109375 9.83203125 C3.20868652 9.01452393 2.70643555 8.1970166 2.18896484 7.35473633 C1 5 1 5 0 0 Z " fill="#2C9AD9" transform="translate(2751,244)"/>
<path d="M0 0 C2.0762753 -0.0095725 4.15150173 -0.04054013 6.22753906 -0.07226562 C18.17267034 -0.16907963 28.95935365 2.00014254 40.05566406 6.42773438 C41.11237305 6.83668945 41.11237305 6.83668945 42.19042969 7.25390625 C43.87773818 7.90816873 45.56095654 8.57296592 47.24316406 9.24023438 C47.24316406 9.90023438 47.24316406 10.56023437 47.24316406 11.24023438 C48.31630859 11.61148437 48.31630859 11.61148437 49.41113281 11.99023438 C62.88909014 17.93912588 71.53752657 31.26928686 77.24316406 44.24023438 C79.36723178 50.61243752 79.33123199 57.95941887 77.21972656 64.32617188 C71.10144525 76.3937212 59.74372343 83.75000791 47.24316406 88.24023438 C44.27316406 88.73523438 44.27316406 88.73523438 41.24316406 89.24023438 C40.25316406 83.30023438 40.25316406 83.30023438 39.24316406 77.24023438 C38.25316406 76.91023438 37.26316406 76.58023438 36.24316406 76.24023438 C35.62441406 75.60085938 35.00566406 74.96148437 34.36816406 74.30273438 C30.69934787 70.74182454 27.42378422 70.10360231 22.43066406 69.92773438 C13.30636773 70.19728523 8.17637001 73.53767915 1.57519531 79.76367188 C-1.7481882 83.29302723 -4.31365973 87.06932919 -6.75683594 91.24023438 C-7.26085937 92.01109375 -7.76488281 92.78195312 -8.28417969 93.57617188 C-10.00554005 96.69014474 -10.92962443 99.68877249 -11.88183594 103.11523438 C-12.21441406 104.28828125 -12.54699219 105.46132813 -12.88964844 106.66992188 C-14.77882612 114.44788765 -15.00127524 122.02259574 -15.06933594 129.99023438 C-15.09833984 131.1065625 -15.12734375 132.22289062 -15.15722656 133.37304688 C-15.23419441 143.53280276 -13.02020628 152.5963528 -6.44824219 160.56835938 C-3.5480232 163.43508853 -0.80202755 165.42675891 3.24316406 166.24023438 C9.61621618 165.50359438 15.06613834 161.80913767 20.24316406 158.24023438 C29.85100838 168.52773328 36.55516802 183.49128911 39.24316406 197.24023438 C39.57316406 196.91023437 39.90316406 196.58023438 40.24316406 196.24023438 C47.66873628 195.58115417 54.84474535 196.81632375 62.11816406 198.17773438 C63.13652344 198.36013672 64.15488281 198.54253906 65.20410156 198.73046875 C72.57075845 200.06325207 72.57075845 200.06325207 75.30883789 200.78393555 C89.76856327 204.19491961 104.76786063 200.2294237 117.30566406 192.99023438 C123.16937958 189.00535468 127.00217425 183.96320382 129.24316406 177.24023438 C129.43815658 173.92897252 129.58728617 170.6242526 129.67285156 167.30859375 C129.95197697 161.09223822 131.60159524 156.99633125 135.93066406 152.36523438 C139.0963776 150.33439927 141.08216144 149.35614783 144.86425781 149.65039062 C155.5926405 152.31046581 163.23566217 159.58781985 170.90722656 167.04492188 C173.72732493 169.78458389 176.66297847 172.29234495 179.74316406 174.74023438 C184.10022922 178.2258865 188.18412351 181.91841404 192.24316406 185.74023438 C197.12395968 190.33082764 202.1103695 194.67946958 207.34082031 198.87304688 C210.82890856 201.71797484 214.22475235 204.65858565 217.61816406 207.61523438 C222.49984429 211.8610655 227.38360611 216.1037068 232.30566406 220.30273438 C233.30726563 221.15996094 234.30886719 222.0171875 235.34082031 222.90039062 C237.42026046 224.5768168 239.37827353 226.00449833 241.61425781 227.42382812 C242.48179687 228.02324219 243.34933594 228.62265625 244.24316406 229.24023438 C244.24316406 229.90023437 244.24316406 230.56023437 244.24316406 231.24023438 C244.76910156 231.46324219 245.29503906 231.68625 245.83691406 231.91601562 C249.10856354 233.71648506 251.87059702 236.06434123 254.74316406 238.42773438 C277.60821339 256.95009786 301.93967321 273.40503867 326.28811646 289.88441467 C334.29506006 295.30455102 342.28198412 300.75310758 350.24316406 306.24023438 C351.05688477 306.8001709 351.87060547 307.36010742 352.70898438 307.93701172 C395.7218263 337.58992944 395.7218263 337.58992944 403.24316406 350.24023438 C403.91867698 354.29331187 403.44568439 355.87709449 401.43066406 359.49023438 C399.24316406 362.24023438 399.24316406 362.24023438 396.24316406 364.24023438 C368.8419134 367.06051478 342.64796601 356.18511624 317.79785156 346.08398438 C314.02494758 344.55051163 310.23603687 343.06667241 306.43066406 341.61523438 C301.79867252 339.84102682 297.17090969 338.05753452 292.55566406 336.24023438 C290.81736328 335.55960938 290.81736328 335.55960938 289.04394531 334.86523438 C286.15483219 333.67720947 283.38513565 332.32327221 280.60253906 330.90429688 C274.58193938 327.8539657 268.39052764 325.2526168 262.18066406 322.61523438 C243.49387527 314.61338977 225.09371589 305.99661045 206.68383789 297.38146973 C204.37571841 296.3022155 202.06654881 295.22525333 199.75683594 294.14941406 C55.72840322 227.05386414 55.72840322 227.05386414 40.24316406 210.24023438 C38.84666808 211.45273469 38.84666808 211.45273469 38.49316406 214.92773438 C35.1139993 230.40332953 28.34797144 247.74972751 14.75878906 256.91601562 C3.14522332 264.11436481 -7.8262383 264.91359127 -21.06933594 261.86523438 C-30.61741992 259.00281088 -39.1491518 254.18797157 -47.75683594 249.24023438 C-49.01367188 248.51924561 -49.01367188 248.51924561 -50.29589844 247.78369141 C-70.00470637 236.38859508 -88.04186386 223.75329374 -104.75683594 208.24023438 C-105.44519531 207.61761719 -106.13355469 206.995 -106.84277344 206.35351562 C-112.7563799 200.77883127 -118.33660586 194.66083482 -121.75683594 187.24023438 C-121.86910661 182.79077025 -120.40822527 179.32655513 -118.75683594 175.24023438 C-117.92677184 172.63990414 -117.11528769 170.03826849 -116.31933594 167.42773438 C-115.8852436 166.04857497 -115.45034638 164.66966864 -115.01464844 163.29101562 C-108.45361089 142.28872623 -105.2506467 121.15553133 -103.75683594 99.24023438 C-99.58003049 99.16489657 -95.40360683 99.1110859 -91.22631836 99.07543945 C-89.81153456 99.06054699 -88.39679527 99.04022602 -86.98217773 99.01391602 C-77.51220991 98.84246825 -68.93693217 99.68080479 -59.75683594 102.24023438 C-58.31106589 102.59783297 -56.86456671 102.95251191 -55.41699219 103.30273438 C-53.63615234 103.76679688 -53.63615234 103.76679688 -51.81933594 104.24023438 C-50.01142578 104.70429688 -50.01142578 104.70429688 -48.16699219 105.17773438 C-44.80140055 106.22634941 -41.88655705 107.63665092 -38.75683594 109.24023438 C-38.09683594 109.24023438 -37.43683594 109.24023438 -36.75683594 109.24023438 C-36.65886719 108.51320313 -36.56089844 107.78617187 -36.45996094 107.03710938 C-35.24390346 98.86017115 -33.48062205 90.68780661 -29.75683594 83.24023438 C-30.48257813 83.12808594 -31.20832031 83.0159375 -31.95605469 82.90039062 C-34.88247587 82.2106205 -36.97971403 81.18512623 -39.56933594 79.67773438 C-40.35953125 79.22269531 -41.14972656 78.76765625 -41.96386719 78.29882812 C-42.55554688 77.94949219 -43.14722656 77.60015625 -43.75683594 77.24023438 C-43.75683594 76.58023438 -43.75683594 75.92023438 -43.75683594 75.24023438 C-44.33820313 74.97082031 -44.91957031 74.70140625 -45.51855469 74.42382812 C-54.87348461 69.47698036 -61.30285041 60.06349596 -64.75683594 50.24023438 C-66.57954904 42.44960578 -66.05615218 34.44322392 -62.19042969 27.37695312 C-53.17988311 14.21609419 -39.46939739 5.87219906 -23.87011719 2.64257812 C-22.94585937 2.48917969 -22.02160156 2.33578125 -21.06933594 2.17773438 C-13.85260087 0.96995437 -7.37538778 0.02049668 0 0 Z " fill="#02A383" transform="translate(499.7568359375,274.759765625)"/>
<path d="M0 0 C10.12599887 9.50074894 16.51284958 21.10391528 22.59375 33.43359375 C23.14289062 32.37785156 23.14289062 32.37785156 23.703125 31.30078125 C36.87925205 7.27003525 58.48236231 -8.95859917 84.52734375 -16.96875 C111.74327128 -24.84027535 144.48883251 -24.75989029 170.359375 -12.2265625 C192.35423445 0.25794106 205.93415922 20.36101438 212.6184082 44.35864258 C212.94651489 45.57136841 212.94651489 45.57136841 213.28125 46.80859375 C213.58518677 47.9217395 213.58518677 47.9217395 213.89526367 49.05737305 C217.42218205 62.76630026 217.87831404 76.1450046 217.82080078 90.19873047 C217.82023548 92.15150954 217.82055555 94.10428904 217.82168579 96.05706787 C217.82225565 101.31643967 217.8105612 106.57571877 217.79653788 111.83506918 C217.7839689 117.34700128 217.78285518 122.8589359 217.78048706 128.37088013 C217.77429032 138.78981178 217.75790412 149.20870107 217.73778808 159.62761414 C217.71537264 171.49711453 217.7044215 183.36661702 217.69439721 195.23613334 C217.67353616 219.63531565 217.63688267 244.03443994 217.59375 268.43359375 C203.40375 268.43359375 189.21375 268.43359375 174.59375 268.43359375 C174.57187622 260.22198364 174.57187622 260.22198364 174.54956055 251.84448242 C174.49911475 233.71165283 174.43264977 215.5789077 174.35803509 197.44616222 C174.3132055 186.45752616 174.27376173 175.46892157 174.24731445 164.48022461 C174.22422988 154.89453579 174.19071656 145.30894768 174.14504844 135.7233389 C174.12125632 130.65504933 174.10243629 125.58685863 174.09613609 120.51851463 C174.09002113 115.73239597 174.06979482 110.94652984 174.03947449 106.16050529 C174.03079566 104.41887934 174.02695013 102.67722024 174.02874184 100.93557358 C174.0453619 77.29120918 170.98962612 52.9172573 154.40625 34.68359375 C144.15432447 25.18347609 130.40644114 20.33934399 116.59375 19.43359375 C115.45873047 19.35625 115.45873047 19.35625 114.30078125 19.27734375 C92.91428763 18.50082961 72.64393072 25.74461313 56.46875 39.68359375 C40.43805064 54.77578698 31.27449089 73.03053175 30.4550848 95.18225098 C30.44863225 96.4801355 30.4421797 97.77802002 30.43553162 99.11523438 C30.43059364 99.84485854 30.42565566 100.57448271 30.42056805 101.3262167 C30.40532837 103.74742362 30.39686955 106.16860433 30.38842773 108.58984375 C30.37883854 110.33484626 30.36882786 112.07984649 30.35842896 113.82484436 C30.33148661 118.54527986 30.31041954 123.26572525 30.29042697 127.98619461 C30.2685013 132.92562901 30.24114492 137.86503329 30.21437073 142.80444336 C30.16453259 152.1504342 30.11956095 161.49644183 30.07634836 170.8424654 C30.02689993 181.48575731 29.97201009 192.129019 29.91666877 202.77228165 C29.80298509 224.65935883 29.69683483 246.54646391 29.59375 268.43359375 C15.40375 268.43359375 1.21375 268.43359375 -13.40625 268.43359375 C-13.42606934 263.21724121 -13.44588867 258.00088867 -13.46630859 252.62646484 C-13.53342863 235.32787116 -13.61096852 218.02933552 -13.69377708 200.73081017 C-13.7436975 190.25007938 -13.79014102 179.76935562 -13.828125 169.28857422 C-13.86127745 160.14345555 -13.90123301 150.99839495 -13.94904006 141.85334074 C-13.97407642 137.02027605 -13.99592229 132.18724873 -14.00959396 127.35413742 C-12.30844888 77.50038492 -12.30844888 77.50038492 -34.0859375 34.55078125 C-37.60963489 31.33555568 -41.24510846 28.75592098 -45.40625 26.43359375 C-46.0559375 26.05589844 -46.705625 25.67820312 -47.375 25.2890625 C-63.8085887 16.85104677 -84.88594311 18.25560135 -102.03125 23.18359375 C-112.39609923 26.60071558 -121.06959909 31.43616387 -129.40625 38.43359375 C-130.39625 39.15546875 -131.38625 39.87734375 -132.40625 40.62109375 C-145.99559627 52.1342899 -154.20344792 71.0898985 -156.40625 88.43359375 C-156.70733696 94.35788711 -156.71793095 100.27498324 -156.72509766 106.20581055 C-156.73441098 107.9808141 -156.74458171 109.75581333 -156.75553894 111.5308075 C-156.78269474 116.31925046 -156.7979453 121.10766425 -156.81096697 125.8961637 C-156.826661 130.91166999 -156.85343105 135.92711725 -156.8789978 140.94258118 C-156.92567497 150.42658857 -156.96247244 159.9106072 -156.99567068 169.39467031 C-157.03397047 180.19765854 -157.08335993 191.00058732 -157.13365483 201.80352533 C-157.23681008 224.01350958 -157.32465994 246.22351908 -157.40625 268.43359375 C-171.92625 268.43359375 -186.44625 268.43359375 -201.40625 268.43359375 C-201.40625 174.71359375 -201.40625 80.99359375 -201.40625 -15.56640625 C-189.85625 -15.56640625 -178.30625 -15.56640625 -166.40625 -15.56640625 C-166.05691406 -12.71371094 -165.70757813 -9.86101562 -165.34765625 -6.921875 C-165.00749629 -4.16161019 -164.66627551 -1.40147846 -164.32495117 1.35864258 C-164.08816318 3.27810221 -163.85247962 5.19769843 -163.61791992 7.11743164 C-163.28073201 9.87552896 -162.93958554 12.63311198 -162.59765625 15.390625 C-162.49344864 16.25009232 -162.38924103 17.10955963 -162.28187561 17.99507141 C-162.18184738 18.7956749 -162.08181915 19.59627838 -161.97875977 20.42114258 C-161.84885399 21.47704338 -161.84885399 21.47704338 -161.71632385 22.55427551 C-161.42083908 24.65244577 -161.42083908 24.65244577 -160.40625 27.43359375 C-159.93316406 26.75554687 -159.46007813 26.0775 -158.97265625 25.37890625 C-140.9309952 -0.01306116 -116.99509061 -15.37201834 -86.15625 -20.81640625 C-55.37512098 -24.66838519 -24.22013621 -20.63583445 0 0 Z " fill="#2C9BDA" transform="translate(2551.40625,395.56640625)"/>
<path d="M0 0 C1.60251114 0.00456207 1.60251114 0.00456207 3.23739624 0.00921631 C19.69574636 0.0783529 35.71747877 0.67266711 51.8125 4.4375 C53.15900635 4.75098389 53.15900635 4.75098389 54.53271484 5.07080078 C71.50776286 9.22053327 88.32504611 16.15787892 101.8125 27.4375 C102.65941406 28.12328125 103.50632812 28.8090625 104.37890625 29.515625 C124.71966644 46.78198022 133.2002928 70.79963916 136.8125 96.4375 C132.07425235 98.14343723 127.38672142 99.22181767 122.45703125 100.1640625 C121.67357834 100.31660492 120.89012543 100.46914734 120.08293152 100.62631226 C118.43692821 100.94584267 116.79054217 101.26340716 115.14379883 101.57910156 C112.62152356 102.06316718 110.10075425 102.55455736 107.58007812 103.046875 C105.97664647 103.35720499 104.37313356 103.66711553 102.76953125 103.9765625 C101.63980644 104.19682602 101.63980644 104.19682602 100.48725891 104.42153931 C97.5454386 104.98245948 94.81510453 105.4375 91.8125 105.4375 C91.4103125 103.65859375 91.4103125 103.65859375 91 101.84375 C86.31622063 82.09265057 79.00327314 65.32342425 61.375 54 C33.86591836 38.40506288 -5.64427916 35.03254069 -36.1875 43.4375 C-55.76970013 48.86585637 -74.36853122 57.70503665 -85.203125 75.8046875 C-94.59423671 93.30805964 -96.74992853 113.35194943 -92.3515625 132.671875 C-86.58057989 151.34042276 -74.5295277 164.7342851 -57.625 174.375 C-32.06769506 187.72402588 -2.84388174 193.15780059 25.02734375 199.56640625 C112.8944581 219.77415427 112.8944581 219.77415427 136.625 256.25 C146.33266129 271.82820143 151.89996647 289.77929172 152.015625 308.1796875 C152.02132507 308.90632599 152.02702515 309.63296448 152.03289795 310.38162231 C152.04229519 311.9161842 152.04886079 313.45076579 152.05273438 314.98535156 C152.0623295 317.27187059 152.09335565 319.55744544 152.125 321.84375 C152.31000687 347.54600675 145.35441114 373.07305263 127.8125 392.4375 C127.08675781 393.25605469 126.36101562 394.07460938 125.61328125 394.91796875 C99.51667932 422.73996585 57.0784604 430.85306811 20.5078125 432.3125 C-33.63633758 433.9280341 -88.27312695 427.58194779 -135.1875 398.4375 C-136.1875 397.4375 -136.1875 397.4375 -136.40625 393.5078125 C-136.32505931 385.36844543 -134.89630403 377.34415097 -133.6875 369.3125 C-133.44595971 367.67197129 -133.20506895 366.0313468 -132.96484375 364.390625 C-132.37987949 360.40510622 -131.78613753 356.42098697 -131.1875 352.4375 C-126.58015794 353.22546911 -123.16307449 355.00414829 -119.1875 357.375 C-94.52059843 371.54723536 -68.19726463 381.2919033 -40.1875 386.4375 C-39.32930664 386.59976074 -38.47111328 386.76202148 -37.58691406 386.92919922 C1.37275852 393.99091316 45.55432638 391.79834343 79.75 370.5 C93.51620004 360.74566397 101.924077 347.03380968 105.0625 330.5625 C107.92631884 310.51576815 103.58670694 292.77572943 91.8125 276.4375 C68.50710396 247.4759629 20.57673333 241.63004239 -13.1875 233.4375 C-84.42229122 216.12103548 -84.42229122 216.12103548 -109.1875 195.4375 C-110.29351563 194.54998047 -110.29351563 194.54998047 -111.421875 193.64453125 C-128.7700976 179.13782787 -138.55690039 157.0671568 -141.01977539 134.82714844 C-143.34034709 101.7649129 -139.67647227 67.47473234 -117.1875 41.4375 C-116.60742188 40.71433594 -116.02734375 39.99117188 -115.4296875 39.24609375 C-101.82641016 22.88231871 -82.20542302 13.47616086 -62.1875 7.4375 C-61.22408691 7.14601074 -61.22408691 7.14601074 -60.24121094 6.84863281 C-40.57949051 1.0740732 -20.37616484 -0.1236787 0 0 Z " fill="#2C9AD9" transform="translate(1202.1875,238.5625)"/>
<path d="M0 0 C4.13735437 3.86566603 8.09018199 7.90594972 12 12 C13.71737555 10.28262445 13.45522526 7.92267824 13.71875 5.57421875 C13.84636719 4.46755859 13.97398437 3.36089844 14.10546875 2.22070312 C14.23566406 1.05474609 14.36585938 -0.11121094 14.5 -1.3125 C14.75805784 -3.60052769 15.01838229 -5.88830117 15.28125 -8.17578125 C15.45237305 -9.70585815 15.45237305 -9.70585815 15.62695312 -11.2668457 C16 -14 16 -14 17 -18 C28.88 -18 40.76 -18 53 -18 C53 75.72 53 169.44 53 266 C41.12 266 29.24 266 17 266 C15.21649438 253.67759751 13.48620292 241.36171131 12 229 C11.35675781 229.81082031 10.71351563 230.62164063 10.05078125 231.45703125 C-9.39107478 255.48460956 -35.75770431 269.09838776 -66.50317383 272.484375 C-97.57946118 275.42684354 -132.10099902 269.87227698 -157.1875 250.125 C-158.80307043 248.76341714 -160.40722238 247.38817692 -162 246 C-163.26650391 244.93265625 -163.26650391 244.93265625 -164.55859375 243.84375 C-192.60033908 219.60065814 -204.03978305 182.31644366 -206.7890625 146.44042969 C-209.65736798 99.65783607 -201.62876163 51.48713045 -169.99047852 15.26367188 C-129.39587525 -29.73660352 -47.69070097 -40.81824187 0 0 Z M-110 23 C-110.92039062 23.41894531 -111.84078125 23.83789062 -112.7890625 24.26953125 C-125.9800839 30.86504195 -135.76246539 40.97174149 -144 53 C-144.63550781 53.90878906 -145.27101563 54.81757813 -145.92578125 55.75390625 C-157.23506042 73.38233919 -162.08657838 96.96614924 -162.203125 117.6796875 C-162.20882507 118.49132355 -162.21452515 119.30295959 -162.22039795 120.13919067 C-162.22979185 121.85189537 -162.23635943 123.56461768 -162.24023438 125.27734375 C-162.24984465 127.83367673 -162.2808817 130.38917075 -162.3125 132.9453125 C-162.48964854 160.43139418 -155.77282702 187.44726703 -138 209 C-137.48308594 209.63035156 -136.96617187 210.26070312 -136.43359375 210.91015625 C-122.04945612 226.73631269 -100.04182502 232.82567511 -79.45092773 233.87695312 C-56.47814965 234.68403814 -32.99010868 228.7174304 -15.45703125 213.33984375 C0.23259643 198.398529 8.97982941 180.22246742 10.19529724 158.51156616 C10.27875391 154.69322678 10.30524762 150.87758526 10.30078125 147.05859375 C10.30468509 145.64152404 10.3090231 144.22445546 10.31376648 142.80738831 C10.32117422 139.85161534 10.32097926 136.8959619 10.31567383 133.94018555 C10.31105516 130.95077417 10.31791839 127.96177077 10.33618164 124.97241211 C10.52578786 93.66622764 9.05687534 61.95141873 -13.84667969 38.02807617 C-29.30463408 22.52989463 -48.96158324 14.84006219 -70.875 14.75 C-84.62078722 14.75755928 -97.45808783 17.25573839 -110 23 Z " fill="#2C9BDA" transform="translate(2230,398)"/>
<path d="M0 0 C0.80897736 -0.00095673 1.61795471 -0.00191345 2.45144653 -0.00289917 C4.14731932 -0.00357553 5.84319478 -0.00175949 7.5390625 0.00244141 C10.14589134 0.00783958 12.75255116 0.00245663 15.359375 -0.00390625 C17.01041705 -0.00324619 18.66145899 -0.00196654 20.3125 0 C21.48581375 -0.00303635 21.48581375 -0.00303635 22.68283081 -0.00613403 C28.14283316 0.01783316 28.14283316 0.01783316 29.2578125 1.1328125 C32.4567764 1.42113113 35.65612064 1.58163591 38.86328125 1.75390625 C42.25801077 2.13283463 45.04466917 3.01308073 48.2578125 4.1328125 C50.39641506 4.43013006 50.39641506 4.43013006 52.4453125 4.5078125 C57.07094129 4.93539163 61.00175777 6.35759276 65.2890625 8.09765625 C68.3727927 9.24338623 68.3727927 9.24338623 72.16015625 9.95703125 C78.35402559 11.27563033 84.31901488 13.32488573 90.31469727 15.33642578 C92.31733107 16.00681446 94.32345435 16.66588341 96.33007812 17.32421875 C102.88684244 19.49697638 109.23477608 21.72224819 115.2578125 25.1328125 C115.89726807 25.48601562 116.53672363 25.83921875 117.19555664 26.203125 C125.45585172 30.83397288 133.48804788 35.81136532 141.3203125 41.1328125 C142.01705078 41.60146729 142.71378906 42.07012207 143.43164062 42.55297852 C145.07929032 43.69190591 146.67481219 44.90561441 148.2578125 46.1328125 C148.2578125 46.7928125 148.2578125 47.4528125 148.2578125 48.1328125 C149.0415625 48.3803125 149.8253125 48.6278125 150.6328125 48.8828125 C153.69722707 50.34205753 153.87507011 51.18296206 155.2578125 54.1328125 C156.58188919 54.81767975 157.91690491 55.48151453 159.2578125 56.1328125 C160.94715172 57.7764939 162.61041174 59.4471001 164.2578125 61.1328125 C165.33619986 62.01390092 166.41991219 62.88849724 167.5078125 63.7578125 C171.5619998 67.17880786 174.71752532 71.21689522 178.01171875 75.35546875 C179.97803354 77.78685973 182.01139698 80.08786605 184.1328125 82.3828125 C200.82818089 101.14866949 215.23765294 124.93457056 223.3671875 148.703125 C224.16939909 150.8916145 225.0889129 152.83685133 226.1953125 154.8828125 C231.19119662 164.54021054 233.7005267 175.16189089 235.58203125 185.79296875 C236.16273557 189.09493521 236.16273557 189.09493521 237.30078125 191.98046875 C238.57005483 196.16130049 238.716441 200.16135719 238.8828125 204.5078125 C238.92148437 205.33925781 238.96015625 206.17070312 239 207.02734375 C239.09355496 209.06216406 239.17673963 211.09745666 239.2578125 213.1328125 C236.03594157 211.23026657 232.90751944 209.24598088 229.8203125 207.1328125 C222.15795614 201.99209048 222.15795614 201.99209048 213.21875 200.71484375 C209.53032884 201.50102117 207.81673745 203.3911072 205.2578125 206.1328125 C203.40206204 209.6865115 203.07693199 212.71837464 203.03295898 216.70361328 C202.92056877 225.88469351 201.15502069 233.22511778 194.43359375 239.9609375 C189.57376808 243.86457029 183.95304016 246.65815272 178.2578125 249.1328125 C177.53464844 249.45507812 176.81148437 249.77734375 176.06640625 250.109375 C162.87392427 255.01927264 147.77806217 252.3145476 134.52734375 249.10546875 C128.70009627 247.71136514 122.88580361 246.98887562 116.8828125 247.0078125 C116.05007813 247.00523437 115.21734375 247.00265625 114.359375 247 C112.19978392 246.99936404 112.19978392 246.99936404 110.2578125 248.1328125 C110.061875 247.31941406 109.8659375 246.50601563 109.6640625 245.66796875 C106.23407407 232.52460791 101.14268835 219.57254162 92.2578125 209.1328125 C91.44957031 209.62652344 90.64132812 210.12023437 89.80859375 210.62890625 C88.73996094 211.26957031 87.67132812 211.91023437 86.5703125 212.5703125 C85.51457031 213.20839844 84.45882812 213.84648437 83.37109375 214.50390625 C79.84887244 216.34677486 77.17278009 217.63461518 73.23046875 216.6015625 C64.7278768 212.28940953 60.45248927 205.99599268 57.2578125 197.1328125 C53.34926582 184.10491821 55.23380984 165.96863581 59.2578125 153.1328125 C59.474375 152.39933594 59.6909375 151.66585937 59.9140625 150.91015625 C60.58241885 148.9090655 61.36753267 147.04540518 62.2578125 145.1328125 C62.64453125 144.28332031 63.03125 143.43382812 63.4296875 142.55859375 C68.21777681 132.91516668 75.36215752 124.68481379 85.2578125 120.1328125 C91.36593942 118.29786079 97.81581659 118.10503356 103.6328125 120.8828125 C108.27243565 123.57678723 111.07596465 125.83693689 112.5078125 131.1328125 C113.15160411 133.97437548 113.2578125 136.13951165 113.2578125 139.1328125 C131.52384736 132.43467396 131.52384736 132.43467396 145.2578125 119.1328125 C145.66902344 118.56304687 146.08023438 117.99328125 146.50390625 117.40625 C150.72576589 110.5402499 150.4168237 102.00203115 148.59765625 94.359375 C146.25542389 87.93091042 142.40029006 82.52533285 138.2578125 77.1328125 C137.79632812 76.50503906 137.33484375 75.87726563 136.859375 75.23046875 C132.27560892 69.38815418 125.89384175 64.45082712 119.2578125 61.1328125 C119.2578125 60.4728125 119.2578125 59.8128125 119.2578125 59.1328125 C118.26910156 58.85566406 117.28039062 58.57851563 116.26171875 58.29296875 C113.5884825 57.52966733 110.93337486 56.72485596 108.28515625 55.87890625 C107.61291016 55.66427734 106.94066406 55.44964844 106.24804688 55.22851562 C104.87487735 54.78821293 103.50248261 54.34548691 102.13085938 53.90039062 C101.45990234 53.68705078 100.78894531 53.47371094 100.09765625 53.25390625 C99.50331787 53.0623999 98.90897949 52.87089355 98.29663086 52.67358398 C91.22960587 50.79914256 84.14024338 50.94667238 76.89013672 50.94750977 C74.76379508 50.94531866 72.6379692 50.92711295 70.51171875 50.90820312 C69.14583509 50.90526925 67.77994899 50.90328441 66.4140625 50.90234375 C65.18494141 50.89823486 63.95582031 50.89412598 62.68945312 50.88989258 C59.21080906 51.13613979 56.50740679 51.90978071 53.2578125 53.1328125 C51.65988055 53.47577087 50.05540648 53.78994788 48.4453125 54.0703125 C34.27722225 56.82757557 20.63074656 63.55449969 11.7578125 75.3203125 C7.58636873 82.19371416 6.56746261 90.43424446 7.7578125 98.3203125 C10.61483973 109.54824755 18.64875167 119.03926173 28.2578125 125.1328125 C28.2578125 125.7928125 28.2578125 126.4528125 28.2578125 127.1328125 C28.80953125 127.24496094 29.36125 127.35710937 29.9296875 127.47265625 C32.65846461 128.24642023 34.98554193 129.40098944 37.5078125 130.6953125 C38.39984375 131.15035156 39.291875 131.60539063 40.2109375 132.07421875 C40.88640625 132.42355469 41.561875 132.77289063 42.2578125 133.1328125 C42.06445312 133.88304687 41.87109375 134.63328125 41.671875 135.40625 C40.39037037 140.44345135 39.15848652 145.46163748 38.1953125 150.5703125 C37.54765076 153.95012713 36.72189628 156.99549011 35.2578125 160.1328125 C31.66995784 159.18093269 28.40959678 158.19994785 25.0078125 156.6953125 C11.91962926 150.91080294 -2.3226779 149.83191754 -16.4296875 149.5078125 C-17.82489117 149.46952106 -19.22007402 149.4304634 -20.61523438 149.390625 C-23.99075919 149.29718487 -27.3662902 149.21141834 -30.7421875 149.1328125 C-30.80688232 148.20758789 -30.87157715 147.28236328 -30.93823242 146.32910156 C-33.43798607 111.78314989 -38.89314281 72.69270776 -66.7421875 48.3828125 C-69.4813129 46.1887142 -69.4813129 46.1887142 -71.7421875 45.1328125 C-70.45050156 34.10504377 -62.54954741 26.39547288 -54.7421875 19.1328125 C-54.20335937 18.565625 -53.66453125 17.9984375 -53.109375 17.4140625 C-51.7421875 16.1328125 -51.7421875 16.1328125 -49.6171875 15.6328125 C-48.9984375 15.4678125 -48.3796875 15.3028125 -47.7421875 15.1328125 C-47.4121875 14.1428125 -47.0821875 13.1528125 -46.7421875 12.1328125 C-33.84306354 3.15737643 -15.38408838 -0.04043944 0 0 Z " fill="#016565" transform="translate(427.7421875,224.8671875)"/>
<path d="M0 0 C14.96423701 14.19365337 23.88615858 32.47072309 24.51953125 53.23828125 C24.78469059 76.92014623 19.65057604 97.58523202 3.1640625 115.04296875 C-37.56655034 153.57040003 -113.95676009 157.86330674 -167.0859375 157.29296875 C-167.92447266 157.28845703 -168.76300781 157.28394531 -169.62695312 157.27929688 C-171.6341478 157.26782719 -173.64130424 157.24991353 -175.6484375 157.23046875 C-169.4615185 180.78267124 -162.09712563 205.1535735 -139.81054688 218.31591797 C-108.81316052 235.69206999 -71.28990638 235.23387468 -37.6484375 226.23046875 C-19.99991325 221.25336968 -2.79221895 214.5170595 12.1015625 203.6640625 C14.3515625 202.23046875 14.3515625 202.23046875 17.3515625 202.23046875 C18.49772117 207.26434582 19.63683738 212.29974595 20.76953125 217.33666992 C21.15563153 219.04901816 21.54363365 220.76093875 21.93359375 222.47241211 C22.49462562 224.93622936 23.04874108 227.40151679 23.6015625 229.8671875 C23.77655273 230.62883713 23.95154297 231.39048676 24.13183594 232.17521667 C25.79847708 239.67117204 25.79847708 239.67117204 25.3515625 243.23046875 C23.34427151 245.00566672 21.62410116 246.25583748 19.3515625 247.60546875 C18.72145264 247.9919458 18.09134277 248.37842285 17.44213867 248.77661133 C-24.61975794 273.8709737 -84.39896994 278.9288358 -131.32299805 267.25244141 C-148.99676285 262.61226386 -164.49202548 254.76456421 -178.6484375 243.23046875 C-179.81439453 242.31201172 -179.81439453 242.31201172 -181.00390625 241.375 C-206.83853933 219.92996829 -218.2608366 184.53084941 -221.6484375 152.23046875 C-221.75929688 151.2353125 -221.87015625 150.24015625 -221.984375 149.21484375 C-225.98747669 105.28891705 -220.44941559 55.56858214 -191.3671875 20.3515625 C-167.80976564 -7.09456613 -136.62675323 -21.63749391 -100.65063477 -24.58862305 C-65.81471122 -26.68778702 -27.45223387 -24.09327474 0 0 Z M-150.6484375 39.23046875 C-151.34453125 39.91625 -152.040625 40.60203125 -152.7578125 41.30859375 C-170.37441647 59.74457465 -177.93393695 89.2545302 -177.7109375 114.23046875 C-177.69010417 116.56380208 -177.66927083 118.89713542 -177.6484375 121.23046875 C-165.94604757 121.42977145 -154.37856698 120.83811545 -142.7109375 119.98046875 C-141.79790863 119.91422302 -140.88487976 119.84797729 -139.94418335 119.77972412 C-81.47455161 116.9348941 -81.47455161 116.9348941 -30.94921875 90.9375 C-21.33327034 79.62365917 -19.52368917 66.58470675 -20.6484375 52.23046875 C-22.60514093 41.88611303 -29.02874116 32.54891026 -37.4609375 26.35546875 C-71.14850128 4.88991744 -122.69992214 10.89106506 -150.6484375 39.23046875 Z " fill="#2C9BDA" transform="translate(1972.6484375,398.76953125)"/>
<path d="M0 0 C0.1887207 3.03979492 0.1887207 3.03979492 -0.07421875 6.98046875 C-0.11743256 7.6932045 -0.16064636 8.40594025 -0.20516968 9.14027405 C-0.3512475 11.49054995 -0.5192261 13.83871758 -0.6875 16.1875 C-0.79295643 17.81143498 -0.89702894 19.43546039 -0.99975586 21.05957031 C-1.21319121 24.39563218 -1.43548376 27.73092724 -1.66503906 31.06591797 C-1.98356303 35.71066127 -2.27345171 40.35677618 -2.5546875 45.00390625 C-3.92201299 67.33007473 -3.92201299 67.33007473 -5 75 C-8.69615555 74.56515817 -12.36840248 74.10634868 -16.0390625 73.48828125 C-33.63044988 70.52839388 -47.80814362 72.31267995 -62.921875 82.265625 C-72.25832071 89.37502861 -78.28040859 101.15807986 -82 112 C-82.36867188 113.06605469 -82.73734375 114.13210938 -83.1171875 115.23046875 C-89.14135125 134.33630196 -88.33472044 154.48735526 -88.40471697 174.29709291 C-88.42054812 178.20082019 -88.44727235 182.1044741 -88.4727478 186.00814819 C-88.51918721 193.37050029 -88.55609767 200.73286675 -88.58942068 208.09528863 C-88.63511104 218.06519423 -88.69585413 228.03500805 -88.75566864 238.00483704 C-88.84926202 253.66984491 -88.92303148 269.33488116 -89 285 C-115.4 285 -141.8 285 -169 285 C-169 191.28 -169 97.56 -169 1 C-147.55 1 -126.1 1 -104 1 C-102.14768073 10.8790361 -100.38609244 20.65010504 -99.0078125 30.58398438 C-98.78012437 34.62313184 -98.78012437 34.62313184 -97 38 C-96.62230469 37.34515625 -96.24460937 36.6903125 -95.85546875 36.015625 C-84.81858874 17.71559913 -68.81049061 2.72232186 -48.0078125 -3.2734375 C-34.44014369 -6.55082243 -12.11564617 -8.07709745 0 0 Z " fill="#2C9BD9" transform="translate(3584,379)"/>
<path d="M0 0 C2.05401168 0.00315144 4.10656677 -0.02032868 6.16040039 -0.0456543 C26.8482181 -0.14430374 44.69441176 8.92906117 59.58032227 23.01098633 C73.74183792 38.01151457 79.07007008 56.34707067 78.91235352 76.49536133 C78.7337819 80.86143745 78.14188754 85.00225336 77.38500977 89.30004883 C76.65192087 93.67302287 76.21676046 98.07435004 75.74633789 102.48193359 C72.01272042 137.20008376 64.69140336 177.13773668 36.11547852 200.47192383 C33.71727466 202.20804686 31.29483501 203.79414451 28.75610352 205.31567383 C27.79317383 205.9112207 27.79317383 205.9112207 26.81079102 206.51879883 C9.30532398 216.33357951 -13.73144247 213.46149438 -32.24389648 208.31567383 C-36.44698062 206.95411136 -40.32786407 205.35540014 -44.24389648 203.31567383 C-45.02635742 202.93282227 -45.80881836 202.5499707 -46.61499023 202.15551758 C-59.3247702 194.95257469 -66.24679716 179.09115909 -70.33374023 165.76098633 C-74.01971973 151.80805107 -75.36057521 136.8006218 -73.48022461 122.48461914 C-73.16188341 119.56298357 -73.08641999 116.65455854 -73.00390625 113.71826172 C-72.73529033 104.81775911 -71.77439592 96.16077946 -70.30639648 87.37817383 C-70.13648193 86.35401367 -69.96656738 85.32985352 -69.79150391 84.2746582 C-68.98603532 79.6789975 -68.01921619 75.64017054 -66.24389648 71.31567383 C-65.95152153 69.5722528 -65.70451747 67.82084869 -65.49389648 66.06567383 C-64.30577825 58.42777088 -61.68343561 51.41539317 -58.95922852 44.21606445 C-58.35680734 42.61563904 -57.77979527 41.00568248 -57.20874023 39.39379883 C-53.94363952 30.51724796 -48.7489576 22.19245273 -42.24389648 15.31567383 C-41.58389648 15.31567383 -40.92389648 15.31567383 -40.24389648 15.31567383 C-39.91389648 14.32567383 -39.58389648 13.33567383 -39.24389648 12.31567383 C-26.99030741 2.98768215 -15.16687682 -0.04857142 0 0 Z " fill="#FCFDFE" transform="translate(254.243896484375,282.684326171875)"/>
<path d="M0 0 C14.52 0 29.04 0 44 0 C44 27.39 44 54.78 44 83 C73.7 83 103.4 83 134 83 C134 95.54 134 108.08 134 121 C104.3 121 74.6 121 44 121 C44.11973768 153.07914732 44.11973768 153.07914732 44.2578125 185.15820312 C44.31820248 198.24257809 44.37658304 211.32693985 44.421875 224.41137695 C44.45487224 233.94130122 44.49474599 243.471168 44.54279006 253.00102872 C44.56797827 258.04445361 44.58978205 263.08784075 44.60334396 268.13131142 C44.61623421 272.88452586 44.63836286 277.63761032 44.66738319 282.39075279 C44.67640478 284.12929244 44.68213644 285.86785298 44.68421364 287.60641479 C44.61619675 308.82641253 44.61619675 308.82641253 54.6875 326.875 C68.14117338 335.50565839 83.72223072 335.18625385 99 332 C105.69919708 330.36143006 112.42209938 328.47706915 118.80078125 325.84375 C121 325 121 325 124 325 C124.43386971 329.08868355 124.86080343 333.17803047 125.28173828 337.26806641 C125.42541123 338.65497646 125.57087184 340.04170268 125.71826172 341.42822266 C126.55343289 349.2970123 127.25502083 357.07782523 127 365 C103.03817129 371.85914203 103.03817129 371.85914203 92 373 C91.00871094 373.10957031 90.01742188 373.21914063 88.99609375 373.33203125 C66.56491813 375.43758591 39.88856526 375.99632966 21 362 C7.01345643 350.39041821 2.18822716 333.59225187 0.18981028 316.10896635 C-0.45012993 308.99864336 -0.25701367 301.82528218 -0.22705078 294.69384766 C-0.22648543 292.79032904 -0.22680564 290.88680999 -0.22793579 288.98329163 C-0.22850547 283.85821205 -0.21681393 278.73322765 -0.20278788 273.60817003 C-0.19021592 268.23637415 -0.18910495 262.86457566 -0.18673706 257.49276733 C-0.18054119 247.33945489 -0.16415618 237.18618595 -0.14403808 227.03289258 C-0.12161992 215.46568407 -0.11067082 203.89847338 -0.10064721 192.33124852 C-0.07978812 168.55413608 -0.04313574 144.77708319 0 121 C-17.16 121 -34.32 121 -52 121 C-52 108.46 -52 95.92 -52 83 C-34.84 83 -17.68 83 0 83 C0 55.61 0 28.22 0 0 Z " fill="#2C9AD9" transform="translate(1420,297)"/>
<path d="M0 0 C10.72838268 2.66007518 18.37140436 9.93742923 26.04296875 17.39453125 C28.86306711 20.13419327 31.79872066 22.64195432 34.87890625 25.08984375 C39.2359714 28.57549587 43.3198657 32.26802341 47.37890625 36.08984375 C52.25970187 40.68043701 57.24611169 45.02907895 62.4765625 49.22265625 C65.96465074 52.06758421 69.36049454 55.00819502 72.75390625 57.96484375 C77.63558648 62.21067487 82.5193483 66.45331617 87.44140625 70.65234375 C88.44300781 71.50957031 89.44460938 72.36679687 90.4765625 73.25 C92.55600265 74.92642617 94.51401572 76.35410771 96.75 77.7734375 C97.61753906 78.37285156 98.48507812 78.97226562 99.37890625 79.58984375 C99.37890625 80.24984375 99.37890625 80.90984375 99.37890625 81.58984375 C100.1678125 81.92435547 100.1678125 81.92435547 100.97265625 82.265625 C104.24430573 84.06609444 107.00633921 86.4139506 109.87890625 88.77734375 C132.74395557 107.29970724 157.0754154 123.75464804 181.42385864 140.23402405 C189.43080225 145.6541604 197.41772631 151.10271695 205.37890625 156.58984375 C206.19262695 157.14978027 207.00634766 157.7097168 207.84472656 158.28662109 C250.85756849 187.93953882 250.85756849 187.93953882 258.37890625 200.58984375 C259.05441917 204.64292125 258.58142657 206.22670386 256.56640625 209.83984375 C254.37890625 212.58984375 254.37890625 212.58984375 251.37890625 214.58984375 C223.97765559 217.41012415 197.7837082 206.53472561 172.93359375 196.43359375 C169.16068977 194.900121 165.37177905 193.41628179 161.56640625 191.96484375 C156.93441471 190.19063619 152.30665188 188.40714389 147.69140625 186.58984375 C146.53253906 186.13609375 145.37367188 185.68234375 144.1796875 185.21484375 C141.29057437 184.02681885 138.52087783 182.67288159 135.73828125 181.25390625 C129.71768157 178.20357507 123.52626982 175.60222617 117.31640625 172.96484375 C98.62961745 164.96299915 80.22945808 156.34621983 61.81958008 147.7310791 C59.5114606 146.65182488 57.202291 145.57486271 54.89257812 144.49902344 C-52.92067174 94.27429245 -52.92067174 94.27429245 -93.99609375 69.02734375 C-94.60267822 68.65778564 -95.2092627 68.28822754 -95.83422852 67.9074707 C-100.50992567 64.93461328 -105.54645462 61.48168382 -107.53125 56.140625 C-107.60666016 55.03267578 -107.60666016 55.03267578 -107.68359375 53.90234375 C-107.75707031 53.15597656 -107.83054687 52.40960938 -107.90625 51.640625 C-107.53309627 48.9569852 -106.72709623 48.25442998 -104.62109375 46.58984375 C-97.47152953 45.33845849 -89.77377167 47.21192994 -82.74609375 48.52734375 C-81.72773437 48.70974609 -80.709375 48.89214844 -79.66015625 49.08007812 C-72.29349936 50.41286144 -72.29349936 50.41286144 -69.55541992 51.13354492 C-55.09569454 54.54452898 -40.09639718 50.57903308 -27.55859375 43.33984375 C-21.69487823 39.35496406 -17.86208356 34.31281319 -15.62109375 27.58984375 C-15.42610123 24.2785819 -15.27697164 20.97386197 -15.19140625 17.65820312 C-14.91228084 11.4418476 -13.26266257 7.34594063 -8.93359375 2.71484375 C-5.76788021 0.68400865 -3.78209637 -0.29424279 0 0 Z " fill="#FDCA34" transform="translate(644.62109375,424.41015625)"/>
<path d="M0 0 C1 1 1 1 1.13061523 3.4074707 C1.10500048 12.03176113 0.68029416 20.58657843 0.0625 29.1875 C-0.06801758 31.14913086 -0.06801758 31.14913086 -0.20117188 33.15039062 C-0.87266896 42.74533793 -0.87266896 42.74533793 -2 45 C-3.89492187 44.76216797 -3.89492187 44.76216797 -5.828125 44.51953125 C-24.75517626 42.43666771 -41.26667491 43.32066052 -57 55 C-57.75796875 55.56203125 -58.5159375 56.1240625 -59.296875 56.703125 C-80.12160228 73.68783164 -89.18821441 101.18492382 -92 127 C-92.2785235 132.42691276 -92.31138352 137.84469451 -92.31884766 143.27685547 C-92.32817172 144.8552602 -92.33834396 146.43366012 -92.34928894 148.01205444 C-92.37632417 152.25074951 -92.39165868 156.48941186 -92.40471697 160.72816992 C-92.42046488 165.17511036 -92.44721719 169.62198508 -92.4727478 174.06887817 C-92.51933091 182.46905442 -92.55617334 190.86924331 -92.58942068 199.26948178 C-92.62778767 208.841612 -92.6771591 218.41367588 -92.72740483 227.98574996 C-92.83041987 247.65712351 -92.91832603 267.32852547 -93 287 C-107.52 287 -122.04 287 -137 287 C-137 193.28 -137 99.56 -137 3 C-124.13 3 -111.26 3 -98 3 C-97.01 18.84 -96.02 34.68 -95 51 C-92.03 45.72 -89.06 40.44 -86 35 C-73.89551811 18.08476249 -59.40926215 2.90575607 -38.5 -2.3125 C-25.79846667 -4.41593864 -12.31111824 -3.72420975 0 0 Z " fill="#2C9BDA" transform="translate(1735,377)"/>
<path d="M0 0 C41.96459098 5.12166268 89.70457528 38.14059404 121.453125 63.7890625 C130.63562408 71.1993269 140.02711683 78.26081169 149.56054688 85.21337891 C151.97082455 86.97863231 154.36991035 88.75801345 156.765625 90.54296875 C165.52954313 97.06445047 174.3883931 103.39627652 183.43310547 109.52319336 C187.5561655 112.31763536 191.62641009 115.15323831 195.625 118.125 C214.62043664 132.0862069 235.45356933 145.39173743 257.46875 153.9609375 C261.91809533 155.7014167 265.90119557 157.54071734 270 160 C271.49354035 160.59967908 272.9946322 161.18066218 274.5 161.75 C283.93726433 165.44345315 292.61783432 170.43909776 300.78125 176.421875 C303.02217757 178.08791616 303.02217757 178.08791616 305.75 179.4609375 C306.4925 179.96882812 307.235 180.47671875 308 181 C308.56803744 185.40229019 308.50897323 187.82936157 306.75 191.875 C304.3337475 194.8090209 302.20964402 195.78466089 298.4765625 196.44921875 C285.03840636 197.57213317 274.42078042 196.27189498 262 191 C260.38114141 190.46038047 258.75662212 189.93720153 257.125 189.4375 C253.03410183 188.11616975 249.69641668 186.19046915 246 184 C244.31505715 183.2784673 242.62963978 182.557981 240.93994141 181.84765625 C236.86131891 180.06550456 232.92532936 177.98110653 228.9609375 175.9609375 C225.88070009 174.40297958 222.8232106 172.92537843 219.640625 171.58203125 C214.88265459 169.51445827 210.33387394 167.11237137 205.75 164.6875 C204.82356689 164.19983154 203.89713379 163.71216309 202.94262695 163.2097168 C196.59722397 159.86302755 190.27264354 156.48153752 184 153 C184 152.34 184 151.68 184 151 C183.2575 150.87625 182.515 150.7525 181.75 150.625 C179.19858515 150.04513299 177.2732427 149.26291261 175 148 C175 147.34 175 146.68 175 146 C174.27506348 145.88769043 173.55012695 145.77538086 172.80322266 145.65966797 C169.85479018 144.96582852 167.7681126 143.95135425 165.1484375 142.4453125 C163.76229248 141.6550769 163.76229248 141.6550769 162.34814453 140.84887695 C160.87643799 139.99555786 160.87643799 139.99555786 159.375 139.125 C158.35390137 138.54000732 157.33280273 137.95501465 156.28076172 137.35229492 C153.18310813 135.57515405 150.09115053 133.78842265 147 132 C145.28665683 131.01397793 143.57312919 130.02827628 141.859375 129.04296875 C137.96868912 126.80206047 134.08566459 124.54831985 130.20703125 122.28662109 C128.76247772 121.44449752 127.31719267 120.60362721 125.87109375 119.76416016 C114.61100713 113.22646968 103.5216394 106.43096589 92.47460938 99.54003906 C90.21133766 98.13152308 87.94295493 96.73181561 85.671875 95.3359375 C77.01834974 90.00240368 68.61571739 84.3743726 60.27099609 78.57177734 C55.92661904 75.56499392 51.55509733 72.59790238 47.1875 69.625 C37.89690978 63.29556044 28.61581733 56.9523977 19.33984375 50.6015625 C16.13553601 48.40829677 12.93017098 46.21657911 9.72460938 44.02514648 C8.13411151 42.93707208 6.54425255 41.84806308 4.95507812 40.75805664 C1.06507403 38.090404 -2.83295453 35.4364133 -6.75 32.80859375 C-7.49805908 32.30344238 -8.24611816 31.79829102 -9.0168457 31.27783203 C-10.43354633 30.32146749 -11.85381677 29.37036385 -13.27807617 28.42529297 C-14.88774915 27.33443333 -16.44981683 26.17386284 -18 25 C-18 24.34 -18 23.68 -18 23 C-16.88439964 22.06678662 -15.73015151 21.17970317 -14.5625 20.3125 C-9.20964427 15.82948332 -6.18376541 10.12213374 -2.78515625 4.1328125 C-1 1 -1 1 0 0 Z " fill="#C6832C" transform="translate(533,507)"/>
<path d="M0 0 C2.0762753 -0.0095725 4.15150173 -0.04054013 6.22753906 -0.07226562 C18.17267034 -0.16907963 28.95935365 2.00014254 40.05566406 6.42773438 C40.76013672 6.70037109 41.46460938 6.97300781 42.19042969 7.25390625 C43.87773818 7.90816873 45.56095654 8.57296592 47.24316406 9.24023438 C47.24316406 9.90023438 47.24316406 10.56023437 47.24316406 11.24023438 C47.95859375 11.48773438 48.67402344 11.73523438 49.41113281 11.99023438 C62.88909014 17.93912588 71.53752657 31.26928686 77.24316406 44.24023438 C79.36723178 50.61243752 79.33123199 57.95941887 77.21972656 64.32617188 C71.10144525 76.3937212 59.74372343 83.75000791 47.24316406 88.24023438 C45.26316406 88.57023437 43.28316406 88.90023437 41.24316406 89.24023438 C40.25316406 83.30023438 40.25316406 83.30023438 39.24316406 77.24023438 C37.75816406 76.74523437 37.75816406 76.74523437 36.24316406 76.24023438 C35.62441406 75.60085938 35.00566406 74.96148437 34.36816406 74.30273438 C30.69934787 70.74182454 27.42378422 70.10360231 22.43066406 69.92773438 C13.30636773 70.19728523 8.17637001 73.53767915 1.57519531 79.76367188 C-1.7481882 83.29302723 -4.31365973 87.06932919 -6.75683594 91.24023438 C-7.26085937 92.01109375 -7.76488281 92.78195312 -8.28417969 93.57617188 C-10.00554005 96.69014474 -10.92962443 99.68877249 -11.88183594 103.11523438 C-12.21441406 104.28828125 -12.54699219 105.46132813 -12.88964844 106.66992188 C-14.77882612 114.44788765 -15.00127524 122.02259574 -15.06933594 129.99023438 C-15.09833984 131.1065625 -15.12734375 132.22289062 -15.15722656 133.37304688 C-15.2351632 143.66068241 -12.9347774 152.46201828 -6.41699219 160.58007812 C-3.81255093 163.18451939 -1.06742288 164.65115264 2.24316406 166.24023438 C1.91316406 166.90023437 1.58316406 167.56023437 1.24316406 168.24023438 C-7.92573652 168.76695845 -16.16459638 167.96989985 -23.3203125 161.72290039 C-25.75120339 159.21392684 -27.35995075 156.36264706 -29.00683594 153.30273438 C-29.5134375 152.41038086 -29.5134375 152.41038086 -30.03027344 151.5 C-38.62612938 136.01730672 -38.82802539 114.13229671 -34.75683594 97.24023438 C-31.85712247 87.44080744 -31.85712247 87.44080744 -29.75683594 83.24023438 C-30.48257813 83.12808594 -31.20832031 83.0159375 -31.95605469 82.90039062 C-34.88247587 82.2106205 -36.97971403 81.18512623 -39.56933594 79.67773438 C-40.35953125 79.22269531 -41.14972656 78.76765625 -41.96386719 78.29882812 C-42.85138672 77.77482422 -42.85138672 77.77482422 -43.75683594 77.24023438 C-43.75683594 76.58023438 -43.75683594 75.92023438 -43.75683594 75.24023438 C-44.33820313 74.97082031 -44.91957031 74.70140625 -45.51855469 74.42382812 C-54.87348461 69.47698036 -61.30285041 60.06349596 -64.75683594 50.24023438 C-66.57954904 42.44960578 -66.05615218 34.44322392 -62.19042969 27.37695312 C-53.17988311 14.21609419 -39.46939739 5.87219906 -23.87011719 2.64257812 C-22.48373047 2.41248047 -22.48373047 2.41248047 -21.06933594 2.17773438 C-13.85260087 0.96995437 -7.37538778 0.02049668 0 0 Z " fill="#02A383" transform="translate(499.7568359375,274.759765625)"/>
<path d="M0 0 C5.27606247 0.76270948 10.06125466 2.2601158 15.09765625 3.96484375 C18.59619848 5.01324832 22.13528606 5.52520121 25.74389648 6.06469727 C26.91524643 6.2409816 28.08659637 6.41726593 29.29344177 6.59889221 C30.18660599 6.73125778 31.0797702 6.86362335 32 7 C32.2640284 29.03994609 32.52491566 51.07992752 32.78230286 73.1199522 C32.9019459 83.35903831 33.02252611 93.5981116 33.14550781 103.8371582 C33.25299621 112.78649934 33.35852776 121.73586132 33.46193409 130.68525058 C33.51648655 135.40113794 33.57186507 140.11701149 33.62960815 144.83286095 C33.96412501 172.22292259 34.05506551 199.60797177 34 227 C28.81553785 225.2872759 23.94102594 223.31451876 19 221 C17.45119141 220.27490234 17.45119141 220.27490234 15.87109375 219.53515625 C1.1048491 212.39561817 -14.3094247 203.6905753 -26 192 C-26.22275295 179.11215049 -24.08435636 166.49562 -21.94116211 153.83300781 C-20.55507262 145.61705866 -19.3653505 137.40712012 -18.4375 129.125 C-17.54014381 121.16474484 -16.44866715 113.27549642 -15.125 105.375 C-13.15773826 93.60191495 -11.65954291 81.78576687 -10.18081665 69.94393921 C-8.76816125 58.65746058 -7.19203479 47.42492744 -5.31298828 36.20483398 C-4.19149115 29.44170858 -3.3442724 22.68583539 -2.65209961 15.86645508 C-2.09462517 10.48007233 -1.19213462 5.27945333 0 0 Z " fill="#016666" transform="translate(225,532)"/>
<path d="M0 0 C1.87423932 0.54429289 3.7491511 1.08628051 5.625 1.625 C8.82083393 2.59972935 11.93053752 3.66989959 15 5 C14.48595134 10.78304742 13.30184731 15.44055031 11 20.75 C8.61735259 26.24621817 8.61735259 26.24621817 7 32 C1.64930142 31.53472186 -2.64644906 30.03577294 -7.59765625 27.98828125 C-15.33832791 24.80390738 -23.99726692 23.16871054 -32.0625 26.25 C-35.61168702 28.34774641 -35.61168702 28.34774641 -37 32 C-37.75060849 34.91382729 -37.75060849 34.91382729 -37 38 C-32.66843214 42.90822647 -26.91112209 45.8982312 -21.1875 48.875 C-14.18690098 52.63852545 -7.91620127 56.640333 -2 62 C-1.05125 62.825 -0.1025 63.65 0.875 64.5 C4.66626071 68.96030672 7 73.09989449 7 79 C7.66 79 8.32 79 9 79 C9.79930574 93.6095326 7.29579651 106.28995777 -2 118 C-8.99434822 125.79411777 -18.07340329 129.59347288 -28.4609375 130.203125 C-45.02365996 130.40148096 -63.90891171 127.39405886 -78 118 C-77.59685068 109.25165978 -75.94321353 99.88642706 -72 92 C-68.04099509 93.27868481 -64.16465139 94.69574053 -60.29174805 96.20849609 C-43.95361676 102.71759844 -43.95361676 102.71759844 -27.0078125 101.171875 C-24.7404581 99.71816453 -23.21235699 98.42471397 -22 96 C-21.34 96 -20.68 96 -20 96 C-20.90809002 89.77890565 -21.93670336 86.12128797 -27 82 C-27.68835938 81.39414062 -28.37671875 80.78828125 -29.0859375 80.1640625 C-33.63582209 76.78519378 -38.70947048 74.46333373 -43.78710938 71.97460938 C-51.61157439 68.00314785 -58.66763918 63.41859575 -62 55 C-62.51175781 53.94039063 -63.02351562 52.88078125 -63.55078125 51.7890625 C-67.64033881 42.22879739 -65.35270104 28.49724235 -62 19 C-60.26509705 15.45243934 -58.27439771 12.22407973 -56 9 C-55.360625 8.071875 -54.72125 7.14375 -54.0625 6.1875 C-40.13491397 -8.58418215 -17.57725832 -5.7348652 0 0 Z " fill="#309CDA" transform="translate(282,321)"/>
<path d="M0 0 C0.969375 0.78375 1.93875 1.5675 2.9375 2.375 C22.34336282 16.82046956 45.63120785 27.45376689 67.2644043 38.14819336 C73.05701207 41.01376227 78.79291891 43.96790824 84.5 47 C104.53000922 57.61907759 124.90003765 67.73190785 145.609375 76.9609375 C146.69814941 77.44884766 147.78692383 77.93675781 148.90869141 78.43945312 C151.00014847 79.37294087 153.09599552 80.29667537 155.19677734 81.20898438 C160.42084958 83.5418411 164.18656081 85.61488121 168 90 C169.00562223 90.96761711 170.02338222 91.92272461 171.05078125 92.8671875 C171.84440063 93.60098633 171.84440063 93.60098633 172.65405273 94.34960938 C173.20134033 94.85298828 173.74862793 95.35636719 174.3125 95.875 C174.89008057 96.40673828 175.46766113 96.93847656 176.06274414 97.48632812 C181.36710933 102.35727427 186.77051669 107.09615427 192.24609375 111.7734375 C193.4557398 112.80727923 194.6653749 113.84113376 195.875 114.875 C196.48593506 115.39634521 197.09687012 115.91769043 197.72631836 116.45483398 C201.2068911 119.43346808 204.62672208 122.46197887 208 125.5625 C213.49518982 130.54504527 219.31827958 135.07390746 225.18896484 139.60058594 C227.01329763 141.01027528 228.82954622 142.42986494 230.64453125 143.8515625 C231.80445785 144.75550309 232.96460548 145.65916015 234.125 146.5625 C235.15882813 147.36816406 236.19265625 148.17382812 237.2578125 149.00390625 C239.48943296 150.62834793 241.54237351 151.79825313 244 153 C244.7425 153.763125 245.485 154.52625 246.25 155.3125 C248.52860443 157.53931797 250.31755692 158.90162696 253 160.5 C256.54065721 162.62571056 259.10319034 165.03421869 262 168 C266.73662244 172.03366081 271.58976105 175.80449047 276.8125 179.1875 C280.32003314 181.4683212 283.14931952 183.91176281 286 187 C288.46212096 189.52367399 290.85136979 191.88321912 293.625 194.0625 C295.8780326 195.90050028 297.44929607 197.55152011 299 200 C299 200.66 299 201.32 299 202 C295.42489911 200.71020879 292.7002677 199.17604816 289.6875 196.875 C285.27023323 193.70940252 280.72549014 191.16819903 275.875 188.75 C275.21846436 188.42112793 274.56192871 188.09225586 273.88549805 187.75341797 C270.53057 186.11259808 267.16911633 184.65129679 263.6640625 183.359375 C260.43194799 182.16025362 257.93288028 180.75972817 255 179 C253.0618011 178.21528673 251.10147786 177.50841708 249.13671875 176.79296875 C245.32906257 175.37988976 241.66428773 173.75135232 238 172 C236.87722656 171.46375 235.75445313 170.9275 234.59765625 170.375 C220.25154982 163.25571507 207.19905191 154.00655342 194 145 C192.17870193 143.76515803 190.3571141 142.53074327 188.53515625 141.296875 C162.75555168 123.79505529 137.44187049 105.39205317 113.25 85.75 C100.87659756 75.74766009 87.8246475 66.8635904 74 59 C73.24251465 58.56252441 72.4850293 58.12504883 71.70458984 57.67431641 C51.1440418 45.85087113 29.48877417 36.0124655 7.3125 27.625 C6.32137207 27.24964111 5.33024414 26.87428223 4.30908203 26.48754883 C0.22441422 24.99041576 -2.5900789 24 -7 24 C-6.54166667 22.625 -6.08333333 21.25 -5.625 19.875 C-5.35042969 19.04742187 -5.07585938 18.21984375 -4.79296875 17.3671875 C-4.19169914 15.57226442 -3.56945721 13.78434976 -2.9375 12 C-1.70346467 8.05108695 -0.84545776 4.04740416 0 0 Z " fill="#7A465A" transform="translate(539,484)"/>
<path d="M0 0 C3.09316819 9.27950457 3.68578483 24.47666819 -0.05322266 33.55810547 C-2.58515325 37.57029836 -5.81173366 40.68794069 -9.45214844 43.69824219 C-11.693985 45.58364796 -13.63081332 47.73364087 -15.625 49.875 C-17.4765625 51.7421875 -17.4765625 51.7421875 -19 53 C-19.66 53 -20.32 53 -21 53 C-21.25797363 53.60287842 -21.51594727 54.20575684 -21.78173828 54.8269043 C-23.11890404 57.21209716 -24.26773007 58.21424518 -26.4921875 59.76953125 C-27.19110107 60.26251709 -27.89001465 60.75550293 -28.61010742 61.26342773 C-29.35752197 61.77462158 -30.10493652 62.28581543 -30.875 62.8125 C-31.64368408 63.34367432 -32.41236816 63.87484863 -33.2043457 64.42211914 C-43.74713397 71.64105099 -53.79054722 77.07990814 -66 81 C-67.08410156 81.37125 -68.16820312 81.7425 -69.28515625 82.125 C-81.94205416 86.30808169 -94.52977081 87.33797316 -107.75854492 87.26074219 C-109.93241353 87.25002508 -112.10545308 87.26070922 -114.27929688 87.2734375 C-115.71614758 87.27211518 -117.1529978 87.26955129 -118.58984375 87.265625 C-119.84659912 87.26336914 -121.10335449 87.26111328 -122.39819336 87.25878906 C-128.96499162 86.88949594 -135.4805217 85.86926377 -142 85 C-142 69.82 -142 54.64 -142 39 C-135.79509766 39.06960938 -135.79509766 39.06960938 -129.46484375 39.140625 C-126.09386412 39.16648362 -122.72291382 39.18812642 -119.35189056 39.20700073 C-115.83341927 39.22782194 -112.31535528 39.25546249 -108.79711914 39.30175781 C-82.45803268 39.63893815 -57.05866645 38.07924008 -33.48828125 25.13671875 C-31 24 -31 24 -27 24 C-26.505 22.515 -26.505 22.515 -26 21 C-23.56640625 19.17578125 -23.56640625 19.17578125 -20.5625 17.3125 C-19.57378906 16.68988281 -18.58507812 16.06726563 -17.56640625 15.42578125 C-15 14 -15 14 -13 14 C-12.75121094 13.41347656 -12.50242187 12.82695313 -12.24609375 12.22265625 C-10.82588804 9.68943667 -9.28816254 8.29014647 -7.0625 6.4375 C-4.60267986 4.3730902 -2.23631078 2.30641457 0 0 Z " fill="#FAFCFC" transform="translate(430,683)"/>
<path d="M0 0 C1.12317627 0.00088623 2.24635254 0.00177246 3.40356445 0.00268555 C25.86674734 0.31744812 48.56486952 8.16538032 65.4375 23.375 C66.09621094 23.93058594 66.75492188 24.48617188 67.43359375 25.05859375 C78.19556683 34.81359858 85.07000496 49.17987894 87.4375 63.375 C87.542212 65.92610108 87.60103316 68.44905437 87.60546875 71 C87.6096582 71.73537994 87.61384766 72.47075989 87.61816406 73.22842407 C87.62793725 75.61067055 87.62795374 77.99273679 87.625 80.375 C87.62459213 81.593013 87.62459213 81.593013 87.62417603 82.83563232 C87.60470637 95.44480345 87.2095697 107.87341237 85.4375 120.375 C85.33034668 121.1489209 85.22319336 121.9228418 85.11279297 122.72021484 C80.934624 152.04037876 72.26897516 181.51133463 51.4375 203.375 C50.80585938 204.05949219 50.17421875 204.74398437 49.5234375 205.44921875 C43.80457779 211.05470899 36.41764353 214.18324911 29.24365234 217.52636719 C27.78162938 218.2133085 26.33535056 218.93369326 24.89453125 219.6640625 C7.82699532 228.05373307 -16.66955848 228.29297622 -34.5625 222.375 C-43.6810001 218.83370614 -51.44594642 214.36932289 -58.44921875 207.453125 C-60.56736185 205.27561378 -60.56736185 205.27561378 -63.26953125 203.359375 C-65.64539901 201.30325776 -66.23484205 200.43314085 -66.5625 197.375 C-66.12421875 197.73851562 -65.6859375 198.10203125 -65.234375 198.4765625 C-56.35108807 205.51819238 -46.6225662 209.99936701 -35.5625 212.375 C-34.24958984 212.68244141 -34.24958984 212.68244141 -32.91015625 212.99609375 C-13.68043205 216.90676697 5.81717666 215.23643423 22.4375 204.375 C40.21766922 191.08451483 49.40268939 171.08643271 55.4375 150.375 C55.80617188 149.12589844 56.17484375 147.87679687 56.5546875 146.58984375 C61.34599461 128.92886289 63.44193885 110.51596967 65.04296875 92.32421875 C65.4375 88.375 65.4375 88.375 65.9765625 85.7734375 C69.05279838 69.76658298 64.89364437 52.34748389 56.734375 38.48046875 C55.05885604 36.02379568 53.29771394 33.69406671 51.4375 31.375 C50.93992187 30.70339844 50.44234375 30.03179687 49.9296875 29.33984375 C39.77202535 16.50239636 22.41317922 6.8772459 6.4375 4.375 C-3.86921238 3.51797518 -14.22500088 3.42496801 -24.5625 3.375 C-24.5625 3.045 -24.5625 2.715 -24.5625 2.375 C-16.33011575 0.77510245 -8.38420988 -0.01205631 0 0 Z " fill="#2F9AD8" transform="translate(265.5625,279.625)"/>
<path d="M0 0 C4.44220136 2.96146757 6.04623867 5.31722672 7.28173828 10.56542969 C8.13779539 15.96549148 7.97223621 21.42141569 7.9375 26.875 C7.94910156 28.67324219 7.94910156 28.67324219 7.9609375 30.5078125 C7.91760453 50.48431328 1.82772787 70.36522606 -12.3125 85.125 C-12.9725 85.125 -13.6325 85.125 -14.3125 85.125 C-14.52519531 85.71539062 -14.73789062 86.30578125 -14.95703125 86.9140625 C-17.77013371 91.50258121 -23.41014094 93.3732573 -28.3125 95.125 C-33.39769845 94.79154436 -36.90338493 92.54804174 -40.60546875 89.171875 C-51.28655802 76.36434462 -50.04219097 60.799843 -49.3125 45.125 C-48.82266323 40.31638795 -47.75819131 35.73648755 -46.3125 31.125 C-45.98765625 30.02478516 -45.98765625 30.02478516 -45.65625 28.90234375 C-44.98789365 26.901253 -44.20277983 25.03759268 -43.3125 23.125 C-42.92578125 22.27550781 -42.5390625 21.42601562 -42.140625 20.55078125 C-37.35253569 10.90735418 -30.20815498 2.67700129 -20.3125 -1.875 C-13.25078249 -3.99642131 -6.40911431 -3.72142121 0 0 Z " fill="#0C2A47" transform="translate(533.3125,346.875)"/>
<path d="M0 0 C1.05441284 0.01027222 1.05441284 0.01027222 2.13012695 0.02075195 C9.31809255 0.24342127 13.30573593 2.14019661 18.6875 6.625 C23.25309491 12.03162555 27.28165228 17.49219391 29.0625 24.4375 C28.4025 24.4375 27.7425 24.4375 27.0625 24.4375 C26.464375 23.81875 25.86625 23.2 25.25 22.5625 C21.54704151 18.96534032 18.29613273 18.30273515 13.25 18.125 C4.12570367 18.39455085 -1.00429405 21.73494477 -7.60546875 27.9609375 C-10.92885226 31.49029285 -13.49432379 35.26659482 -15.9375 39.4375 C-16.44152344 40.20835937 -16.94554687 40.97921875 -17.46484375 41.7734375 C-19.18620412 44.88741037 -20.11028849 47.88603811 -21.0625 51.3125 C-21.39507812 52.48554688 -21.72765625 53.65859375 -22.0703125 54.8671875 C-23.95949018 62.64515328 -24.18193931 70.21986136 -24.25 78.1875 C-24.29350586 79.86199219 -24.29350586 79.86199219 -24.33789062 81.5703125 C-24.41582726 91.85794803 -22.11544146 100.65928391 -15.59765625 108.77734375 C-12.99321499 111.38178501 -10.24808694 112.84841827 -6.9375 114.4375 C-7.2675 115.0975 -7.5975 115.7575 -7.9375 116.4375 C-17.10640059 116.96422408 -25.34526044 116.16716548 -32.50097656 109.92016602 C-34.93186745 107.41119247 -36.54061481 104.55991269 -38.1875 101.5 C-38.52523438 100.90509766 -38.86296875 100.31019531 -39.2109375 99.69726562 C-48.51533435 82.93836185 -47.9032475 59.71419101 -42.90234375 41.7109375 C-38.13049828 25.94938729 -29.09524758 12.36303652 -14.9375 3.4375 C-9.90335273 0.88142522 -5.59803113 -0.0838129 0 0 Z " fill="#F8FCFC" transform="translate(508.9375,326.5625)"/>
<path d="M0 0 C4.06408584 0.66393482 7.27777262 2.7937077 10.75 4.875 C15.71908921 7.79357986 20.48760731 10.23603434 26 12 C26 12.66 26 13.32 26 14 C26.54527344 14.09796875 27.09054688 14.1959375 27.65234375 14.296875 C32.77267528 15.3121886 37.21629637 16.84791373 41.94140625 19.05078125 C47.03900076 21.40128498 51.35769741 22.19395677 57 23 C57 37.85 57 52.7 57 68 C51.76879352 66.25626451 46.97284033 64.32942154 42 62 C40.45119141 61.27490234 40.45119141 61.27490234 38.87109375 60.53515625 C24.1048491 53.39561817 8.6905753 44.6905753 -3 33 C-2.96071075 30.08957356 -2.85390743 27.21643467 -2.6875 24.3125 C-2.64117432 23.46067139 -2.59484863 22.60884277 -2.54711914 21.73120117 C-2.10762653 14.41203799 -1.21540985 7.2334586 0 0 Z " fill="#F8FAFA" transform="translate(202,691)"/>
<path d="M0 0 C0.93070313 -0.01417969 1.86140625 -0.02835938 2.8203125 -0.04296875 C11.45476486 0.6084797 16.37716512 4.3746866 23.0625 9.625 C23.98925537 10.34349121 24.91601074 11.06198242 25.87084961 11.80224609 C48.99351626 29.89859757 48.99351626 29.89859757 50.375 38.1875 C49.73744485 42.01283091 48.27468871 44.17074847 45.875 47.1875 C41.98609009 49.78010661 38.69998317 49.5284559 34.1875 49.5 C33.34985107 49.49871094 32.51220215 49.49742187 31.64916992 49.49609375 C23.50685317 49.37313286 15.78711258 48.02092747 7.875 46.1875 C7.875 45.8575 7.875 45.5275 7.875 45.1875 C10.185 45.1875 12.495 45.1875 14.875 45.1875 C16.89108853 41.0293174 17.50935244 37.7865552 16.875 33.1875 C13.89849627 28.26313721 9.23444837 24.70306742 4.90234375 21.01953125 C-5.96943283 11.19513199 -5.96943283 11.19513199 -6.3125 4.5625 C-6.02407467 -0.62915599 -4.76565189 0.03246357 0 0 Z " fill="#C6832C" transform="translate(853.125,589.8125)"/>
<path d="M0 0 C9.99756495 3.15633093 17.72064695 10.87923329 24 19 C24.7425 19.928125 25.485 20.85625 26.25 21.8125 C28.57838538 26.05348766 28.62749858 28.21532329 28 33 C25.7539507 35.33120757 24.3304879 35.95029247 21.1171875 36.43359375 C9.82323389 36.44720092 1.42272603 33.6257369 -7 26 C-9.13834199 23.76468105 -11.10726228 21.44548414 -13 19 C-13.81017578 18.05833984 -13.81017578 18.05833984 -14.63671875 17.09765625 C-17.08774937 13.32629968 -16.7050338 9.3209497 -16 5 C-12.31763051 -1.34891292 -6.61619885 -1.07892192 0 0 Z " fill="#C9862C" transform="translate(668,473)"/>
<path d="M0 0 C0.66 0.33 1.32 0.66 2 1 C-1.96 4.96 -5.92 8.92 -10 13 C-10 8.41771462 -7.08388033 6.1816619 -4 3 C-1.625 1.0625 -1.625 1.0625 0 0 Z " fill="#02977E" transform="translate(450,289)"/>
<path d="M0 0 C0.66 0 1.32 0 2 0 C0.59155282 3.21524305 -1.10344786 5.32183868 -3.625 7.75 C-4.57246094 8.67039062 -4.57246094 8.67039062 -5.5390625 9.609375 C-6.02117187 10.06828125 -6.50328125 10.5271875 -7 11 C-7.66 10.67 -8.32 10.34 -9 10 C-8.04882866 8.8274869 -7.08882991 7.66212985 -6.125 6.5 C-5.32449219 5.52546875 -5.32449219 5.52546875 -4.5078125 4.53125 C-4.01023438 4.0259375 -3.51265625 3.520625 -3 3 C-2.34 3 -1.68 3 -1 3 C-0.67 2.01 -0.34 1.02 0 0 Z " fill="#D4D9DE" transform="translate(215,295)"/>
</svg>
